<svg width="28" height="22" viewBox="0 0 28 22" fill="none" xmlns="http://www.w3.org/2000/svg">
<path d="M14.3041 13.3459H12.4369C12.4421 12.872 12.4811 12.4657 12.5541 12.1272C12.6322 11.7887 12.7598 11.484 12.9369 11.2131C13.114 10.9371 13.3535 10.6558 13.6556 10.3694C13.8952 10.1454 14.1088 9.93449 14.2963 9.73657C14.489 9.53345 14.64 9.32251 14.7494 9.10376C14.8588 8.8798 14.9134 8.6272 14.9134 8.34595C14.9134 8.02824 14.8614 7.76261 14.7572 7.54907C14.6582 7.33553 14.5098 7.17407 14.3119 7.0647C14.1192 6.95011 13.877 6.89282 13.5853 6.89282C13.3457 6.89282 13.1192 6.9423 12.9056 7.04126C12.6921 7.14022 12.5202 7.29386 12.39 7.5022C12.2598 7.70532 12.1895 7.97095 12.1791 8.29907H10.1088C10.1244 7.61678 10.2858 7.04907 10.5931 6.59595C10.9004 6.13761 11.3145 5.79647 11.8353 5.57251C12.3561 5.34334 12.9395 5.22876 13.5853 5.22876C14.2989 5.22876 14.9082 5.34855 15.4134 5.58813C15.9239 5.82251 16.3119 6.16626 16.5775 6.61938C16.8483 7.07251 16.9838 7.61938 16.9838 8.26001C16.9838 8.71834 16.8952 9.1298 16.7181 9.49438C16.541 9.85376 16.3067 10.1897 16.015 10.5022C15.7233 10.8147 15.4082 11.1298 15.0697 11.4475C14.7728 11.7131 14.5723 11.997 14.4681 12.2991C14.364 12.6012 14.3093 12.9501 14.3041 13.3459ZM12.2416 15.7756C12.2416 15.4631 12.3457 15.2027 12.5541 14.9944C12.7676 14.7861 13.0541 14.6819 13.4134 14.6819C13.7728 14.6819 14.0567 14.7861 14.265 14.9944C14.4785 15.2027 14.5853 15.4631 14.5853 15.7756C14.5853 16.0777 14.4785 16.3329 14.265 16.5413C14.0567 16.7496 13.7728 16.8538 13.4134 16.8538C13.0541 16.8538 12.7676 16.7496 12.5541 16.5413C12.3457 16.3329 12.2416 16.0777 12.2416 15.7756Z" fill="#707070"/>
<circle cx="13.6406" cy="11" r="10.5" stroke="#707070"/>
</svg>
