<svg width="24" height="24" viewBox="0 0 24 24" fill="none" xmlns="http://www.w3.org/2000/svg">
<circle cx="12" cy="12" r="12" fill="#53BD00"/>
<path d="M19.2777 7.57725L19.2777 7.57723C18.998 7.27427 18.5392 7.27424 18.2595 7.57725L9.74294 16.8035L5.73923 12.4662C5.45953 12.1631 5.0007 12.1631 4.721 12.4662C4.44768 12.7622 4.44769 13.2378 4.72102 13.5339L9.23383 18.4227C9.23383 18.4227 9.23384 18.4227 9.23384 18.4227C9.51353 18.7258 9.97235 18.7258 10.252 18.4227C10.252 18.4227 10.252 18.4227 10.252 18.4227L19.2777 8.64498L19.2777 8.64497C19.551 8.34886 19.551 7.87337 19.2777 7.57725Z" fill="white" stroke="white" stroke-width="0.3"/>
</svg>
