<svg width="31" height="25" viewBox="0 0 31 25" fill="none" xmlns="http://www.w3.org/2000/svg">
<path d="M16.2471 15.1592H14.1465C14.1523 14.626 14.1963 14.1689 14.2783 13.7881C14.3662 13.4072 14.5098 13.0645 14.709 12.7598C14.9082 12.4492 15.1777 12.1328 15.5176 11.8105C15.7871 11.5586 16.0273 11.3213 16.2383 11.0986C16.4551 10.8701 16.625 10.6328 16.748 10.3867C16.8711 10.1348 16.9326 9.85059 16.9326 9.53418C16.9326 9.17676 16.874 8.87793 16.7568 8.6377C16.6455 8.39746 16.4785 8.21582 16.2559 8.09277C16.0391 7.96387 15.7666 7.89941 15.4385 7.89941C15.1689 7.89941 14.9141 7.95508 14.6738 8.06641C14.4336 8.17773 14.2402 8.35059 14.0938 8.58496C13.9473 8.81348 13.8682 9.1123 13.8564 9.48145H11.5273C11.5449 8.71387 11.7266 8.0752 12.0723 7.56543C12.418 7.0498 12.8838 6.66602 13.4697 6.41406C14.0557 6.15625 14.7119 6.02734 15.4385 6.02734C16.2412 6.02734 16.9268 6.16211 17.4951 6.43164C18.0693 6.69531 18.5059 7.08203 18.8047 7.5918C19.1094 8.10156 19.2617 8.7168 19.2617 9.4375C19.2617 9.95312 19.1621 10.416 18.9629 10.8262C18.7637 11.2305 18.5 11.6084 18.1719 11.96C17.8438 12.3115 17.4893 12.666 17.1084 13.0234C16.7744 13.3223 16.5488 13.6416 16.4316 13.9814C16.3145 14.3213 16.2529 14.7139 16.2471 15.1592ZM13.9268 17.8926C13.9268 17.541 14.0439 17.248 14.2783 17.0137C14.5186 16.7793 14.8408 16.6621 15.2451 16.6621C15.6494 16.6621 15.9688 16.7793 16.2031 17.0137C16.4434 17.248 16.5635 17.541 16.5635 17.8926C16.5635 18.2324 16.4434 18.5195 16.2031 18.7539C15.9688 18.9883 15.6494 19.1055 15.2451 19.1055C14.8408 19.1055 14.5186 18.9883 14.2783 18.7539C14.0439 18.5195 13.9268 18.2324 13.9268 17.8926Z" fill="#707070"/>
<circle cx="15.5" cy="12.5" r="12" stroke="#707070"/>
</svg>
