<svg width="24" height="21" viewBox="0 0 24 21" fill="none" xmlns="http://www.w3.org/2000/svg">
<path d="M21.2713 1.43975H19.0833V0.337441C19.0833 0.151083 18.9318 0 18.7449 0C18.5581 0 18.4066 0.151083 18.4066 0.337441V1.43975H15.4742V0.337441C15.4742 0.151083 15.3227 0 15.1358 0C14.9489 0 14.7975 0.151083 14.7975 0.337441V1.43975H11.865V0.337441C11.865 0.151083 11.7135 0 11.5267 0C11.3398 0 11.1883 0.151083 11.1883 0.337441V1.43975H8.25589V0.337441C8.25589 0.151083 8.1044 0 7.91754 0C7.73068 0 7.57918 0.151083 7.57918 0.337441V1.43975H4.64676V0.337441C4.64676 0.151083 4.49527 0 4.3084 0C4.12154 0 3.97005 0.151083 3.97005 0.337441V1.43975H1.78201C0.799423 1.43975 0 2.23701 0 3.21693V19.0541C0 20.0341 0.799423 20.8313 1.78201 20.8313H21.2713C22.2539 20.8313 23.0533 20.0341 23.0533 19.0541V3.21693C23.0533 2.23701 22.2539 1.43975 21.2713 1.43975ZM22.3766 19.0541C22.3766 19.6619 21.8808 20.1565 21.2713 20.1565H1.78201C1.17256 20.1565 0.676713 19.6619 0.676713 19.0541V3.21693C0.676713 2.60914 1.17256 2.11463 1.78201 2.11463H3.97005V3.21693C3.97005 3.40329 4.12154 3.55437 4.3084 3.55437C4.49527 3.55437 4.64676 3.40329 4.64676 3.21693V2.11463H7.57918V3.21693C7.57918 3.40329 7.73068 3.55437 7.91754 3.55437C8.1044 3.55437 8.25589 3.40329 8.25589 3.21693V2.11463H11.1883V3.21693C11.1883 3.40329 11.3398 3.55437 11.5267 3.55437C11.7135 3.55437 11.865 3.40329 11.865 3.21693V2.11463H14.7975V3.21693C14.7975 3.40329 14.9489 3.55437 15.1358 3.55437C15.3227 3.55437 15.4742 3.40329 15.4742 3.21693V2.11463H18.4066V3.21693C18.4066 3.40329 18.5581 3.55437 18.7449 3.55437C18.9318 3.55437 19.0833 3.40329 19.0833 3.21693V2.11463H21.2713C21.8808 2.11463 22.3766 2.60914 22.3766 3.21693V19.0541Z" fill="#7D7D7D"/>
<path d="M17.7819 7.28906H5.21812C5.09766 7.28906 5 7.51293 5 7.78906C5 8.0652 5.09766 8.28906 5.21812 8.28906H17.7819C17.9023 8.28906 18 8.0652 18 7.78906C18 7.51293 17.9023 7.28906 17.7819 7.28906Z" fill="#7D7D7D"/>
</svg>
