<svg width="443" height="323" viewBox="0 0 443 323" fill="none" xmlns="http://www.w3.org/2000/svg">
<path d="M184.022 141.727C182.9 141.2 176.17 143.245 176.632 142.123C177.16 141.002 183.758 140.672 183.494 139.616C183.23 138.56 182.505 132.688 183.032 131.632C183.032 131.632 178.347 128.465 177.226 126.815C176.104 125.231 174.85 125.759 174.454 126.617C174.059 127.475 170.957 140.54 170.627 139.088C170.297 137.636 174.19 125.957 173.399 125.561C172.607 125.165 168.516 121.932 167.262 123.846C166.008 125.759 165.547 143.047 164.095 143.179C162.643 143.311 166.14 123.054 166.14 123.054C166.14 123.054 161.323 123.318 159.608 125.561C157.892 127.739 159.674 148.062 158.222 147.996C156.771 147.864 157.43 126.617 157.43 126.617C157.43 126.617 151.426 129.454 151.096 132.424C150.7 135.393 154.857 148.722 153.537 149.382C152.218 150.042 150.832 136.317 150.832 136.317C150.832 136.317 145.619 138.692 145.355 142.717C145.025 146.742 150.106 151.823 149.512 153.077C148.918 154.331 144.431 148.92 143.64 145.687C142.848 142.387 137.173 159.279 141.99 161.589C143.442 162.315 144.563 162.513 145.355 162.579C144.761 164.162 144.563 165.614 144.299 167.066C143.178 174.522 142.518 186.993 142.056 200.916C141.132 199.992 140.538 199.398 140.538 199.398C139.285 199.926 138.493 201.575 138.163 203.687C137.503 202.895 137.107 202.433 137.107 202.433C137.107 202.433 136.579 204.215 135.787 206.59C135.524 204.743 135.326 202.961 135.062 201.18C135.062 200.982 135.062 200.718 135.062 200.52C135.194 199.728 135.194 199.068 135.062 198.54C134.864 187.521 134.666 174.852 134.468 160.269C134.468 160.137 134.402 160.071 134.336 160.005C134.402 157.168 135.326 132.358 138.691 125.693C142.254 118.633 144.497 110.385 144.497 110.385C144.497 110.385 141.462 115.268 138.757 118.039C136.051 120.81 133.742 121.338 133.742 123.846C133.742 126.353 137.305 134.337 134.996 133.149C132.686 131.962 133.28 127.145 132.488 127.145C131.696 127.145 128.397 138.23 128.397 138.824C128.397 139.418 134.138 144.037 132.62 145.555C131.103 147.072 128.727 139.682 127.803 140.606C126.88 141.53 126.682 149.712 126.682 151.823C126.682 153.935 131.103 152.813 129.057 154.858C127.077 156.904 126.682 165.152 126.682 168.979C121.931 157.762 117.642 154.858 110.647 150.635C112.165 150.635 114.079 150.239 115.728 148.59C118.895 145.357 120.347 133.281 113.023 129.982C113.353 128.201 113.089 126.353 111.835 124.703C107.216 118.699 105.566 118.831 105.566 120.744C105.566 122.592 104.511 140.474 103.257 139.154C102.003 137.834 105.039 120.48 103.257 118.633C101.475 116.785 96.3287 115.334 96.3287 115.862C96.3287 116.389 97.7803 136.911 96.3287 135.393C94.877 133.875 97.1864 115.927 93.0954 115.334C89.0044 114.74 87.0249 115.796 86.299 116.455C85.6392 117.181 90.2581 132.886 89.2024 132.886C88.1466 132.886 84.7154 117.511 82.5379 117.511C80.2944 117.511 77.589 118.831 77.589 120.349C77.589 121.866 81.944 128.201 80.8223 128.201C79.7005 128.201 76.7973 121.14 76.0055 121.932C75.2136 122.724 70.6606 126.419 69.6709 126.419C69.6709 126.419 68.8791 133.15 68.0213 135.195C67.1635 137.241 68.0873 138.296 68.9451 138.296C69.8029 138.296 81.7461 135.129 80.6903 136.251C79.6346 137.373 68.4832 138.89 68.4832 139.946C68.4832 141.002 67.4274 147.138 69.5389 147.534C71.5845 147.996 86.0351 139.814 86.6949 141.332C87.3548 142.849 69.3409 149.118 69.3409 149.118C69.3409 149.118 71.5184 154.265 73.9599 155.056C76.4013 155.848 92.4356 143.707 92.9635 145.423C93.4913 147.072 75.6755 156.904 75.6755 156.904C75.6755 156.904 80.4264 162.051 82.9998 160.995C85.5732 159.939 94.877 148.722 95.9328 149.844C96.9885 150.965 86.2331 159.345 86.2331 159.345C86.2331 159.345 90.2581 163.832 93.6893 162.183C97.1205 160.533 99.298 152.417 100.552 152.417C101.805 152.417 99.166 160.071 96.7906 162.513C94.4151 164.954 110.515 162.843 110.515 156.376C110.515 153.671 110.053 152.153 109.526 151.295C109.592 151.295 109.592 151.361 109.592 151.361C112.099 152.879 115.398 154.66 118.104 157.63C125.032 164.822 129.519 179.009 132.422 195.505C131.432 194.779 130.641 194.845 130.641 195.769C130.641 197.286 127.012 213.321 125.23 211.473C123.448 209.626 130.245 195.043 127.869 192.602C126.418 191.15 123.118 189.236 120.545 188.247C119.423 187.059 115.992 185.871 117.048 182.506C118.104 179.141 112.561 176.105 112.561 176.105C112.561 176.105 109.13 181.252 106.028 181.252C102.927 181.252 109.988 177.887 109.988 175.973C109.988 174.06 99.3639 170.497 99.3639 170.497C99.3639 170.497 102.333 176.963 102.333 179.603C101.08 178.679 99.6939 177.821 98.5721 177.161C97.5824 174.258 97.2525 170.695 95.4709 170.695C93.5574 170.695 92.7655 172.212 91.5778 173.466C90.1921 172.608 88.3446 171.75 86.629 171.091C85.7712 168.913 85.1773 166.604 84.6494 166.604C83.5937 166.604 81.0203 168.913 76.0714 167.989C71.1226 167.132 71.6504 167.857 67.5594 172.08C63.4684 176.303 60.9609 180.394 60.9609 180.394C60.9609 180.394 61.7527 179.999 63.0724 179.471C69.077 177.623 81.8121 178.217 86.563 180.196C89.4003 181.384 95.9328 184.617 101.541 187.389C99.4959 187.653 94.5471 188.972 92.9635 187.323C92.9635 187.323 89.5983 195.505 90.918 199.068C92.2376 202.631 107.48 204.149 104.511 204.941C101.541 205.798 89.8622 203.225 89.8622 203.225C89.8622 203.225 88.8064 211.671 92.0397 213.321C95.2729 214.97 112.033 212.463 110.449 214.179C108.866 215.828 93.4253 217.544 91.7097 215.696C91.7097 215.696 91.3798 225.858 96.9885 226.914C102.597 227.969 117.972 219.391 116.652 221.701C115.332 224.076 101.146 230.873 96.7906 228.299C96.7906 228.299 100.684 237.999 104.247 237.999C107.81 237.999 116.52 225.528 118.302 227.375C120.083 229.223 110.647 238.131 105.369 239.187C105.369 239.187 107.414 244.729 114.21 243.08C120.941 241.43 119.819 230.543 121.865 231.533C123.91 232.456 121.997 244.4 115.134 244.4C115.134 244.4 126.352 247.105 128.991 240.836C129.717 239.055 130.113 237.669 130.245 236.481C132.026 245.059 132.488 256.673 132.356 266.108H121.139V269.078H122.92L124.174 305.633H153.867L155.121 269.078H156.837V266.108H145.685C147.401 244.531 151.162 226.65 154.131 215.234C154.527 216.29 155.121 217.676 156.045 218.599C157.76 220.315 160.994 214.442 160.994 211.473C160.994 208.504 157.496 211.341 157.496 209.692C157.496 208.042 158.024 208.834 162.445 208.834C166.866 208.834 168.516 199.398 168.516 199.398C168.516 199.398 161.785 200.256 161.785 198.936C161.785 197.616 167.196 198.342 170.627 197.418C174.058 196.495 176.038 188.774 176.038 188.774C176.038 188.774 166.206 191.744 166.206 190.424C166.206 189.104 173.795 187.917 175.246 186.399C176.698 184.881 177.16 178.283 177.16 178.283C177.16 178.283 170.627 184.551 169.638 184.551C168.648 184.551 176.566 177.623 175.84 176.897C175.114 176.105 174.784 172.872 174.784 172.872C173.333 174.324 171.023 172.41 169.506 173.928C167.988 175.446 165.349 187.191 164.227 188.313C163.171 189.434 167.262 178.943 165.349 176.963C163.435 174.984 158.354 179.933 157.364 180.988C156.375 182.044 159.74 193.393 158.42 194.845C157.034 196.231 157.298 184.815 156.243 183.694C155.121 182.572 152.218 185.475 151.36 188.84C150.502 192.206 157.958 197.946 155.847 200.19C153.735 202.433 151.756 193.987 149.842 192.074C148.456 190.622 145.553 193.459 144.167 195.967C144.497 185.805 145.025 176.699 145.751 170.233C147.269 174.456 155.187 179.603 160.73 173.73C161.917 174.72 163.369 175.116 165.217 174.456C171.815 172.014 172.409 170.299 171.023 169.639C169.638 168.979 156.771 161.457 158.288 160.665C159.872 159.873 171.419 169.177 173.663 168.055C175.84 166.934 179.271 162.315 178.875 162.117C178.479 161.919 162.445 155.98 164.293 155.056C166.074 154.133 178.479 162.909 180.789 159.081C183.098 155.188 183.23 152.813 183.032 151.889C182.834 150.965 168.978 149.91 169.44 148.854C169.901 147.798 182.966 149.976 183.956 147.732C184.946 145.489 185.144 142.255 184.022 141.727ZM112.297 132.556C112.297 132.886 112.297 133.281 112.363 133.677C112.825 136.185 108.866 140.276 108.14 139.55C107.744 139.088 110.713 136.185 112.297 132.556ZM140.538 217.61C140.868 218.006 141.198 218.27 141.528 218.402C141.594 218.468 141.726 218.468 141.858 218.468C141.858 218.929 141.858 219.391 141.858 219.787C140.538 221.635 138.955 223.68 137.767 223.878C137.701 223.02 137.635 222.229 137.569 221.371C138.295 220.381 139.417 219.127 140.538 217.61ZM135.721 233.974C136.051 233.974 136.447 233.908 136.777 233.842C137.503 245.719 137.767 257.003 137.899 266.042H136.315C136.315 260.5 136.051 250.866 135.721 233.974ZM139.944 266.042C139.681 256.739 139.219 245.191 138.427 233.446C138.757 233.314 139.153 233.182 139.483 232.984C140.34 232.588 141.066 231.928 141.66 231.137C141.594 244.663 141.66 257.266 141.726 266.042H139.944ZM129.519 176.105C129.057 174.786 128.661 173.598 128.199 172.476C129.123 173.07 130.443 172.872 131.63 171.618C133.676 169.573 132.818 161.985 134.138 160.533C134.006 163.634 134.072 177.755 134.204 194.911C133.676 191.942 133.148 189.17 132.554 186.663C131.762 183.298 129.849 177.293 129.519 176.105ZM134.072 204.545C134.138 205.073 134.204 205.535 134.27 206.062C134.27 207.778 134.27 209.494 134.336 211.209C132.752 215.564 130.839 219.721 129.651 219.193C128.001 218.468 131.96 210.549 134.072 204.545ZM117.246 190.292C117.576 194.977 119.093 204.875 116.124 204.875C113.419 204.875 115.2 195.967 115.2 190.952C115.86 190.688 116.586 190.49 117.246 190.292ZM105.303 189.104C106.556 191.876 108.866 197.484 107.018 197.023C104.973 196.495 104.115 189.962 102.927 187.917C103.719 188.379 104.511 188.708 105.303 189.104ZM130.443 232.72C131.301 233.182 132.752 233.842 134.534 233.974C134.666 247.237 134.798 259.048 134.93 266.108H133.742C133.874 255.485 133.214 242.222 130.443 232.72ZM143.772 266.042C143.706 256.409 143.574 242.156 143.64 227.111C144.695 223.746 144.827 220.051 144.629 218.204C147.797 217.346 151.69 214.97 153.207 213.981C150.238 225.396 146.213 243.806 144.497 265.976H143.772V266.042ZM150.106 206.194C149.248 207.118 146.411 204.875 144.036 202.763C144.036 201.707 144.102 200.652 144.102 199.662C146.081 201.905 151.36 204.875 150.106 206.194ZM159.212 171.882C158.948 171.75 158.684 171.618 158.354 171.553C156.309 171.091 154.989 165.68 155.913 165.218C156.375 165.02 157.232 169.045 159.212 171.882Z" fill="#C2D8FF"/>
<path d="M130.573 206.526C131.959 207.119 132.817 207.515 132.817 207.515C132.817 207.515 130.112 203.094 125.691 198.607C121.336 194.121 121.93 193.263 116.585 194.253C111.24 195.176 108.469 192.735 107.347 192.735C106.819 192.735 106.093 195.176 105.235 197.552C103.388 198.212 101.474 199.201 99.9566 200.059C98.7029 198.739 97.8452 197.09 95.7996 197.09C93.8861 197.09 93.4901 200.917 92.4344 204.084C91.1806 204.81 89.729 205.734 88.3433 206.724C88.3433 203.886 91.5106 196.958 91.5106 196.958C91.5106 196.958 80.0953 200.785 80.0953 202.831C80.0953 204.876 87.6835 208.505 84.3183 208.505C80.9531 208.505 77.324 202.962 77.324 202.962C77.324 202.962 71.3853 206.196 72.507 209.825C73.6288 213.454 69.9337 214.708 68.746 215.961C65.9746 217.017 62.4114 219.063 60.8278 220.646C58.2544 223.286 65.5787 238.99 63.6651 240.904C61.7516 242.883 57.8585 225.661 57.8585 224.012C57.8585 223.088 57.0007 222.956 55.9449 223.748C59.0462 206.064 63.863 190.821 71.3193 183.101C74.2886 179.934 77.7858 178.086 80.4912 176.371C80.5572 176.371 80.5572 176.305 80.6232 176.305C80.0953 177.228 79.5674 178.878 79.5674 181.781C79.5674 188.71 96.9213 191.019 94.3479 188.38C91.7745 185.74 88.9372 177.492 90.3229 177.492C91.7086 177.492 94.018 186.136 97.7131 187.918C101.408 189.7 105.763 184.883 105.763 184.883C105.763 184.883 94.216 175.909 95.3377 174.721C96.4594 173.533 106.489 185.543 109.26 186.73C112.032 187.852 117.113 182.375 117.113 182.375C117.113 182.375 98.0431 171.818 98.571 170.036C99.0988 168.255 116.321 181.254 118.96 180.396C121.666 179.538 123.909 173.995 123.909 173.995C123.909 173.995 104.576 167.265 105.301 165.615C106.027 164.032 121.534 172.742 123.777 172.28C126.021 171.818 124.899 165.219 124.899 164.098C124.899 162.976 112.956 161.26 111.834 160.072C110.712 158.885 123.513 162.25 124.437 162.25C125.361 162.25 126.35 161.128 125.427 158.951C124.503 156.773 123.645 149.515 123.645 149.515C122.523 149.515 117.64 145.49 116.849 144.698C116.057 143.906 112.89 151.428 111.702 151.428C110.514 151.428 115.199 144.566 115.199 142.982C115.199 141.399 112.23 139.947 109.854 139.947C107.479 139.947 103.784 156.443 102.662 156.443C101.54 156.443 106.555 139.551 105.829 138.825C105.103 138.034 102.992 136.912 98.571 137.572C94.15 138.232 96.6574 157.565 95.0737 159.149C93.4901 160.732 95.0737 138.693 95.0737 138.166C95.0737 137.638 89.5311 139.089 87.6175 141.135C85.704 143.114 89.0032 161.788 87.6175 163.174C86.2319 164.559 85.1101 145.424 85.1101 143.378C85.1101 141.399 83.3285 141.201 78.3797 147.667C76.994 149.449 76.7301 151.429 77.126 153.342C69.2738 156.905 70.8574 169.838 74.2226 173.335C75.9382 175.117 78.0498 175.579 79.6334 175.579C72.1112 180.132 67.5582 183.233 62.4114 195.308C62.4114 191.217 61.9496 182.375 59.838 180.132C57.6606 177.888 62.4114 179.142 62.4114 176.833C62.4114 174.523 62.1475 165.813 61.1577 164.757C60.168 163.768 57.5945 171.752 56.0109 170.102C54.4273 168.452 60.5639 163.504 60.5639 162.844C60.5639 162.184 57.0006 150.307 56.1428 150.307C55.285 150.307 55.8789 155.52 53.4375 156.773C50.9961 158.027 54.7572 149.449 54.7572 146.744C54.7572 144.038 52.2498 143.51 49.3465 140.541C46.4432 137.572 43.2099 132.293 43.2099 132.293C43.2099 132.293 45.6513 141.135 49.4784 148.789C53.0416 155.981 54.0313 182.639 54.1633 185.608C54.0973 185.674 54.0314 185.806 54.0314 185.872C53.8334 201.511 53.6354 215.104 53.4375 226.981C53.2395 227.509 53.2396 228.235 53.3715 229.092C53.3715 229.356 53.3715 229.554 53.3715 229.818C53.1076 231.732 52.8437 233.645 52.5797 235.625C51.7219 233.051 51.194 231.138 51.194 231.138C51.194 231.138 50.7321 231.666 50.0723 232.524C49.6764 230.214 48.8846 228.433 47.4989 227.905C47.4989 227.905 46.839 228.63 45.8493 229.554C45.3874 214.576 44.6616 201.181 43.4738 193.131C43.2099 191.547 42.9459 190.029 42.2861 188.314C43.1439 188.314 44.3316 188.05 45.9152 187.258C51.128 184.751 44.9915 166.671 44.1337 170.168C43.3419 173.665 38.459 179.538 37.8652 178.152C37.2053 176.767 42.6821 171.356 42.3521 167.001C42.0222 162.646 36.4135 160.072 36.4135 160.072C36.4135 160.072 34.9618 174.853 33.5102 174.127C32.1245 173.401 36.5455 159.083 36.1496 155.915C35.7537 152.748 29.3531 149.647 29.3531 149.647C29.3531 149.647 30.1449 172.478 28.4953 172.61C26.9117 172.742 28.8253 150.901 26.9777 148.525C25.1301 146.15 19.9833 145.886 19.9833 145.886C19.9833 145.886 23.7445 167.661 22.1608 167.463C20.6432 167.331 20.1153 148.723 18.7956 146.678C17.4759 144.632 13.0549 148.129 12.1971 148.525C11.3393 148.921 15.4964 161.458 15.1664 163.042C14.8365 164.625 11.4713 150.571 11.0754 149.647C10.6795 148.723 9.35983 148.129 8.10612 149.845C6.9184 151.56 1.83759 154.992 1.83759 154.992C2.36546 156.113 1.57362 162.382 1.30968 163.57C1.04574 164.691 8.17208 165.087 8.69996 166.275C9.22784 167.463 1.96953 165.219 0.78181 165.813C-0.405913 166.407 -0.141966 169.838 0.913787 172.214C1.96954 174.589 16.0242 172.346 16.4861 173.401C17.014 174.523 2.10151 175.645 1.90356 176.635C1.63962 177.624 1.77157 180.198 4.27898 184.355C6.7864 188.512 20.0493 179.076 22.0289 180.066C23.9424 181.056 6.72044 187.456 6.32453 187.654C5.92862 187.852 9.55777 192.801 11.9332 194.055C14.3087 195.242 26.7138 185.213 28.4294 186.07C30.145 186.928 16.2882 194.978 14.7705 195.704C13.2529 196.43 13.9127 198.212 21.0391 200.851C23.0186 201.577 24.5363 201.115 25.8559 200.059C31.7946 206.328 40.3065 200.851 41.9562 196.298C42.748 203.226 43.3419 212.992 43.6718 223.946C42.1542 221.24 39.0529 218.271 37.5352 219.789C35.4897 221.9 33.3782 230.94 31.0687 228.564C28.7593 226.189 36.8094 219.986 35.8856 216.423C34.9618 212.794 31.8605 209.693 30.6728 210.881C29.4851 212.068 29.815 224.407 28.2974 222.89C26.8457 221.372 30.4749 209.099 29.4191 207.977C28.3634 206.856 22.8207 201.577 20.8411 203.622C18.7956 205.734 23.2166 217.017 22.0948 215.763C20.9071 214.576 18.0698 201.973 16.4202 200.323C14.8365 198.673 12.2632 200.719 10.7455 199.135C10.7455 199.135 10.4156 202.633 9.62376 203.49C8.83194 204.282 17.3439 211.738 16.2882 211.738C15.1664 211.738 8.17209 205.008 8.17209 205.008C8.17209 205.008 8.69998 212.2 10.2836 213.784C11.8013 215.368 19.9833 216.687 19.9833 218.073C19.9833 219.459 9.42581 216.291 9.42581 216.291C9.42581 216.291 11.5373 224.539 15.2324 225.529C18.9276 226.519 24.6682 225.793 24.6682 227.179C24.6682 228.564 17.4099 227.707 17.4099 227.707C17.4099 227.707 19.1255 237.868 23.9424 237.868C28.7593 237.868 29.2872 237.01 29.2872 238.726C29.2872 240.442 25.526 237.472 25.526 240.64C25.526 243.807 29.0232 250.141 30.8048 248.294C31.7946 247.304 32.4544 245.852 32.8503 244.731C35.3578 254.43 38.459 268.617 40.5705 285.641H42.0882C39.9107 267.957 36.6774 253.309 34.104 243.477C35.6877 244.533 39.9106 247.04 43.2759 247.964C43.0779 249.943 43.2099 253.968 44.3317 257.532C44.3977 267.561 44.3317 277.261 44.3317 285.641H46.5091C46.5091 278.449 46.5091 270.333 46.5091 261.821C47.169 262.678 47.9608 263.338 48.8845 263.8C49.2804 263.998 49.6764 264.13 50.0063 264.262C49.4785 271.586 49.0825 278.845 48.8186 285.575H50.7981C50.9961 279.043 51.26 271.982 51.7219 264.724C52.1178 264.79 52.5138 264.856 52.9097 264.856C52.7777 273.368 52.5797 280.164 52.5137 285.641H53.9654C54.0314 279.505 54.0974 272.378 54.2294 264.856C56.1429 264.658 57.7265 263.998 58.6503 263.536C56.8027 269.871 55.8789 277.855 55.417 285.707H56.7367C57.0666 279.307 57.6605 272.906 58.7822 267.561C58.9142 268.815 59.3101 270.399 60.1019 272.246C62.9393 278.977 74.9484 276.073 74.9484 276.073C67.5582 276.073 65.5127 263.272 67.6901 262.283C69.9336 261.293 68.6799 272.906 75.9382 274.688C83.1965 276.469 85.374 270.531 85.374 270.531C79.6994 269.409 69.6037 259.841 71.4513 257.862C73.3649 255.882 82.7347 269.277 86.5618 269.277C90.3889 269.277 94.5459 258.851 94.5459 258.851C89.861 261.623 74.6185 254.298 73.2329 251.725C71.7812 249.218 88.2773 258.455 94.3479 257.334C100.353 256.212 100.023 245.259 100.023 245.259C98.109 247.238 81.5469 245.391 79.8313 243.609C78.1157 241.827 96.1955 244.467 99.6267 242.751C103.058 240.97 101.936 231.93 101.936 231.93C101.936 231.93 89.3991 234.701 86.2319 233.777C83.0646 232.919 99.3628 231.27 100.88 227.443C102.332 223.616 98.7029 214.84 98.7029 214.84C96.9873 216.555 91.7085 215.17 89.465 214.906C95.4697 211.936 102.53 208.505 105.565 207.185C110.382 205.14 124.107 204.546 130.573 206.526ZM28.4294 198.08C28.0335 198.146 27.7695 198.278 27.5056 198.409C29.6171 195.308 30.5409 191.019 31.1347 191.283C32.0585 191.811 30.6728 197.618 28.4294 198.08ZM43.8038 231.6C41.2963 233.909 38.1951 236.285 37.2713 235.295C35.8856 233.909 41.6263 230.676 43.6718 228.235C43.7378 229.356 43.8038 230.478 43.8038 231.6ZM50.7981 251.593C50.7321 252.517 50.6661 253.375 50.5342 254.298C49.2145 254.101 47.5649 251.857 46.1132 249.943C46.1132 249.482 46.1132 248.954 46.1132 248.492C46.2452 248.492 46.3772 248.426 46.4431 248.426C46.8391 248.294 47.169 247.964 47.4989 247.568C48.6866 249.152 50.0063 250.537 50.7981 251.593ZM77.7858 157.433C77.8518 156.971 77.8518 156.575 77.8518 156.179C79.5674 160.006 82.7347 163.174 82.2728 163.702C81.481 164.493 77.3239 160.072 77.7858 157.433ZM54.3613 223.22C54.4933 204.744 54.5592 189.634 54.4273 186.268C55.8789 187.852 54.9551 195.968 57.1326 198.146C58.3863 199.465 59.7721 199.729 60.8278 199.069C60.3659 200.323 59.904 201.577 59.4421 202.962C59.0462 204.216 57.0007 210.617 56.2089 214.312C55.549 217.083 54.8892 220.052 54.3613 223.22ZM59.2442 249.284C57.9245 249.877 55.945 245.325 54.2294 240.706C54.2294 238.858 54.2953 237.011 54.2953 235.163C54.3613 234.635 54.4272 234.041 54.4932 233.513C56.7367 239.98 61.0258 248.492 59.2442 249.284ZM73.7608 233.843C70.5935 233.843 72.2431 223.22 72.573 218.205C73.2989 218.469 74.0247 218.667 74.7505 218.865C74.7505 224.275 76.6641 233.843 73.7608 233.843ZM87.9475 215.697C86.6937 217.941 85.7039 224.935 83.5264 225.463C81.5469 225.925 84.0544 219.92 85.374 216.951C86.2318 216.555 87.0897 216.093 87.9475 215.697Z" fill="#99BEFF"/>
<path d="M66.0382 308.274H32.848C24.7319 305.833 19.4531 301.61 19.4531 296.859C19.4531 292.372 24.138 288.413 31.4623 285.905H67.4899C74.7482 288.413 79.4991 292.372 79.4991 296.859C79.4331 301.61 74.1543 305.833 66.0382 308.274Z" fill="#99BEFF"/>
<path d="M442.284 312.496C442.284 318.039 345.683 322.592 226.581 322.592C107.478 322.592 10.877 318.105 10.877 312.496C10.877 306.953 107.478 302.4 226.581 302.4C345.683 302.4 442.284 306.887 442.284 312.496Z" fill="#54688B"/>
<path d="M92.3013 57.7934L95.3366 55.616C95.3366 55.616 87.4185 41.6272 88.2103 29.618C88.6722 23.2835 78.9064 13.9137 76.333 15.3654C76.2011 15.2994 67.689 15.5633 66.9632 36.2825L65.1816 60.5648L74.3535 69.2748C74.3535 69.2748 80.1601 58.6513 87.4844 63.3362C94.8087 68.0211 97.0521 67.8231 97.0521 67.8231C97.0521 67.8231 92.3013 60.0369 92.3013 57.7934Z" fill="#002B32"/>
<path d="M86.0318 56.1432C86.0318 56.1432 77.9157 51.8542 71.4492 56.4731L72.0431 61.6199L78.7075 76.8623L85.108 75.3447L88.2093 59.3104L86.0318 56.1432Z" fill="#41001D"/>
<path d="M49.4766 214.969C49.4766 214.969 78.8397 202.696 106.091 214.573L93.5543 99.4297L69.5359 105.236L49.4766 214.969Z" fill="#41001D"/>
<path d="M118.495 307.148C116.977 302.793 116.053 296.327 114.14 287.551C113.942 286.495 113.612 285.043 113.216 283.262C110.247 283.262 108.135 283.79 106.09 285.043C106.882 287.419 108.003 290.652 108.069 291.708C108.201 294.215 107.541 294.413 107.541 294.413C107.541 298.702 108.795 303.255 109.587 304.179C110.643 305.301 111.83 310.975 112.82 310.975C113.81 310.975 122.388 311.965 122.388 311.965C122.586 309.788 120.013 311.503 118.495 307.148Z" fill="#FD5E5A"/>
<path d="M74.7492 304.708C74.2873 303.19 73.8914 296.724 73.4955 288.212C71.252 288.212 68.7446 287.354 66.4351 287.882C66.6331 289.069 67.0289 291.049 67.0289 291.379C67.0289 294.48 65.6433 293.292 65.1155 295.536C64.7855 296.988 66.1052 299.825 66.1052 299.825C68.0848 299.825 68.8765 307.347 69.8663 309.525C70.3942 310.778 72.9676 311.372 75.8049 311.372C78.0484 311.372 77.6525 310.778 76.0029 307.677C75.541 306.819 75.0791 305.829 74.7492 304.708Z" fill="#FC7575"/>
<path d="M103.846 214.308C103.582 212.988 95.7299 141.857 92.7606 115.661L76.9243 115.067L68.1484 153.866L88.9995 224.14C88.2737 230.606 88.5377 235.885 90.5172 244.727C92.1009 252.051 98.6333 276.532 102.526 287.749C104.638 286.561 111.83 284.186 114.14 283.328C105.166 224.536 106.815 228.033 103.846 214.308Z" fill="#3A0E22"/>
<path d="M75.7365 221.569L88.9993 141.793L87.4157 114.476H74.4168C74.4168 114.476 61.4178 129.52 58.5145 148.59C55.6112 167.659 61.0219 221.898 61.0219 221.898C61.0219 221.898 60.428 228.695 59.1743 234.568C57.7887 240.704 60.23 278.975 61.7477 289.071C64.1231 288.543 72.3052 288.147 74.4827 288.213C73.6249 267.89 72.3052 235.953 73.5589 232.588C74.4167 230.41 75.1426 225.858 75.7365 221.569Z" fill="#990044"/>
<path d="M93.2243 118.435L71.7793 117.973L74.4187 114.476H93.2243V118.435Z" fill="#3A011A"/>
<path d="M143.307 87.0911C143.044 87.553 142.252 88.6748 141.526 89.4666C140.8 90.2584 143.967 85.3096 144.099 84.4518C145.353 76.6656 141.922 85.1116 140.734 87.4211C139.942 88.9387 136.709 90.0605 135.785 89.7305C135.785 89.7305 114.274 95.7351 107.94 94.8113C107.346 94.7453 106.092 92.04 105.63 90.7863C102.859 92.6998 100.351 94.9433 98.5039 97.8466C99.5597 99.7601 101.143 101.41 102.133 102.07C108.138 106.227 127.603 98.7044 131.628 96.4609C135.653 94.2175 140.206 93.0297 141.328 92.4359C142.45 91.842 146.079 85.8374 145.485 84.3197C144.957 82.9341 143.637 86.4973 143.307 87.0911Z" fill="#FD5E5A"/>
<path d="M136.908 86.4325C136.908 86.4325 131.167 90.5895 132.091 92.3711C133.015 94.1527 135.456 92.3711 135.456 92.3711C135.456 92.3711 135.126 90.3916 136.05 89.4678C136.908 88.544 137.765 85.7727 136.908 86.4325Z" fill="#FD5E5A"/>
<path d="M107.476 92.3043C107.872 91.1825 108.466 89.9288 107.212 88.939C105.43 87.6193 105.496 88.5431 105.496 85.6398C105.496 82.9344 104.836 82.5385 102.857 81.8787C102.791 81.6147 102.725 81.4168 102.659 81.1529C100.217 72.1789 92.6952 58.5861 90.3858 57.5303C88.0763 56.4746 87.4824 63.271 87.4824 63.271C87.4824 63.271 98.04 100.684 98.5679 101.08C98.5679 101.08 100.613 104.181 101.141 104.907L108.004 94.2838L107.476 92.3043C107.476 92.3702 107.476 92.3702 107.476 92.3043Z" fill="#570027"/>
<path d="M67.4896 300.813L67.6215 310.909L66.5658 310.975L65.2461 299.428L67.4896 300.813Z" fill="#1A1722"/>
<path d="M89.7276 57.7932C89.7276 57.7932 84.9767 53.8341 68.9424 57.4633C68.1506 57.6612 66.9629 77.3906 66.9629 77.3906C66.9629 77.3906 72.3077 108.271 70.79 116.454C70.79 116.454 82.0734 126.483 95.4683 119.489C95.4683 119.489 93.8186 93.7548 95.0723 88.0142C96.326 82.2735 98.7675 77.0607 95.3363 71.1221C91.8391 65.1835 89.7276 57.7932 89.7276 57.7932Z" fill="#7F71A4"/>
<path d="M96.5886 118.038C96.5886 118.038 96.2586 118.631 95.7307 119.225C95.2029 119.819 90.584 121.403 90.584 121.403L93.2893 119.687C93.3553 119.753 96.5886 117.51 96.5886 118.038Z" fill="#FD5E5A"/>
<path d="M66.7648 292.964C67.6226 298.639 71.0538 309.79 73.0993 309.79C75.8047 309.79 76.0026 309.658 76.0026 307.678C77.6522 310.78 79.5658 312.297 77.3223 312.297C74.419 312.297 69.932 312.495 69.4042 311.242C68.4144 309.064 67.9525 300.816 65.9729 300.816L66.5668 310.978H65.5111C65.5111 310.978 63.9274 296.989 64.3233 295.603C64.7192 293.69 66.2369 293.294 66.7648 292.964Z" fill="#332F44"/>
<path d="M119.484 309.064C121.464 311.043 124.763 310.713 124.565 312.363C124.565 312.363 113.48 311.835 112.49 311.835C111.5 311.835 110.642 305.171 109.587 304.049C108.531 302.927 109.191 311.835 109.191 311.835H108.069C108.069 311.835 107.343 302.663 106.354 299.034C105.562 296.197 106.683 295.009 107.541 294.283C110.84 301.146 111.104 310.647 119.484 309.064Z" fill="#332F44"/>
<path d="M71.4492 56.4736C71.4492 56.4736 82.0727 168.515 70.8553 201.112C64.3228 220.115 57.9223 221.633 53.6993 219.654C50.598 218.202 48.8164 214.771 48.8164 211.142C48.9484 198.736 49.9382 158.75 57.5924 130.904C66.9622 97.1202 62.3432 92.8972 62.3432 87.3545C62.3432 77.6547 63.729 63.666 65.8405 58.1232C66.2364 57.3314 71.4492 56.4736 71.4492 56.4736Z" fill="#731B43"/>
<path d="M77.9822 55.4178C79.7638 55.3518 81.8093 55.8797 85.1745 56.2756C85.5044 56.3416 85.6364 56.0777 86.0323 56.0777C82.6011 52.5145 69.4701 50.6669 68.6783 56.6715C63.5315 97.7799 76.1346 174.718 70.8558 201.112C83.063 174.586 80.5556 102.597 73.3633 61.4224C72.7034 57.8592 74.551 55.4838 77.9822 55.4178Z" fill="#BF2D70"/>
<path d="M78.4421 163.501C79.4319 130.641 77.0565 90.9839 73.3613 61.4229C79.6958 90.522 82.2032 132.554 78.4421 163.501Z" fill="#CC578D"/>
<path d="M86.0312 56.1436C93.4215 65.0515 96.4568 211.207 106.157 214.638C106.157 214.638 105.629 171.946 105.629 161.191C105.629 150.435 101.208 79.5021 99.0962 73.5635C96.9847 67.6249 90.3862 57.5952 90.3862 57.5952L86.0312 56.1436Z" fill="#731B43"/>
<path d="M86.0316 56.1427C94.5436 65.5785 99.7564 179.6 101.142 198.339C91.1784 153.272 89.1989 65.3145 84.9099 55.6808C84.8439 55.4169 85.7016 55.7468 86.0316 56.1427Z" fill="#BF2D70"/>
<path d="M83.5898 125.888L84.1836 125.426C84.1836 125.426 86.757 125.426 87.8128 124.899C88.8685 124.305 90.1883 124.371 89.7264 124.899C89.2645 125.426 86.8231 126.02 87.285 127.472C87.8128 128.858 83.5898 125.888 83.5898 125.888Z" fill="#FC7575"/>
<path d="M92.8276 126.68C92.3658 127.01 91.3759 127.076 90.3862 127.472C89.3964 127.867 95.0051 125.228 95.0051 124.304C95.0051 123.381 90.3202 126.086 88.9345 126.746C87.3509 127.472 84.9095 126.218 84.2497 125.426C84.2497 125.426 64.9161 118.498 59.7693 114.605C59.3074 114.275 58.1197 112.493 58.2517 111.107C54.9525 111.437 51.7192 112.163 48.7499 113.879C48.8159 116.056 48.222 118.696 48.7499 119.751C52.1151 126.35 73.956 128.857 78.5749 128.857C83.1938 128.857 87.6808 130.045 88.9345 130.045C90.1882 130.045 96.1268 126.548 96.3248 124.964C96.4567 123.381 93.4215 126.284 92.8276 126.68Z" fill="#FC7575"/>
<path d="M60.3628 93.0286C63.728 89.0036 64.9157 78.1821 64.9157 70.5939C64.9157 63.0057 63.794 58.1228 63.794 58.1228C63.794 58.1228 56.3377 57.7929 52.1807 66.3708C47.8257 75.3448 41.9531 84.5166 47.4958 113.352C50.4651 111.636 54.8861 111.504 58.1853 111.174C58.9771 103.85 57.5254 96.4598 60.3628 93.0286Z" fill="#AD004D"/>
<path d="M46.9026 111.24C46.9026 111.24 46.2428 113.55 46.9026 114.275C47.5625 115.001 46.7707 116.717 47.2326 117.707C47.6945 118.696 54.9528 116.189 58.4499 115.133C61.9471 114.077 59.7696 112.824 59.3737 111.438C58.9778 110.052 59.4397 109.393 58.6479 108.469C57.7901 107.611 47.4965 108.733 46.9026 111.24Z" fill="#CE6090"/>
<path d="M47.8262 114.604C50.4656 113.483 55.4144 111.635 58.1858 112.097C58.6477 112.163 58.5157 112.889 58.0538 112.823C57.9878 112.823 56.6022 112.361 52.907 113.153C51.1914 113.483 49.4758 114.011 47.8262 114.604Z" fill="#DE94B5"/>
<path d="M82.0078 41.8916C82.4037 42.2876 82.4037 53.7029 83.8553 56.8701C83.8553 56.8701 87.7484 73.1683 85.1091 73.5642C82.7996 73.8282 74.4856 60.3673 74.0237 58.1238C73.4298 55.0885 74.0237 39.9121 74.0237 39.9121L82.0078 41.8916Z" fill="#FC7575"/>
<path d="M82.4686 47.3684C79.3014 49.6778 76.3321 48.0942 73.8906 44.2011C73.8906 44.1351 73.8906 44.1351 73.8906 44.0691C73.9566 41.9576 74.0226 40.0441 74.0226 39.9121L82.0068 41.8916C82.1387 42.0896 82.2707 44.465 82.4686 47.3684Z" fill="#FD5E5A"/>
<path d="M82.4014 16.2232C82.4014 16.2232 86.8224 17.147 87.3503 21.238C87.8781 25.3291 88.604 28.6943 87.8782 33.4452C87.1523 38.1961 84.5129 44.5306 80.1579 45.5864C75.8029 46.5761 71.25 38.9219 71.25 34.6989C71.25 30.4759 69.6663 23.4815 72.6357 19.1925C75.605 14.8376 82.4014 16.2232 82.4014 16.2232Z" fill="#FC7575"/>
<path d="M77.3887 38.1299C79.6981 39.2516 83.1953 39.2516 83.1953 39.2516C83.1953 39.2516 82.9313 39.7795 82.5354 40.3074C81.5457 40.2414 79.5661 40.0434 77.9165 39.4496C77.5206 38.7237 77.3887 38.1299 77.3887 38.1299Z" fill="white"/>
<path d="M77.918 39.4492C79.5676 40.0431 81.5471 40.241 82.5369 40.307C80.8873 42.4185 79.1057 41.9566 77.918 39.4492Z" fill="#2E0028"/>
<path d="M82.4034 16.2252C82.4034 16.2252 86.8244 17.1489 87.3523 21.24C87.8142 24.9351 88.474 28.1024 88.0781 32.1934C87.3523 31.6656 86.3625 31.1377 84.9768 30.6758C80.094 28.9602 75.8049 18.9305 75.607 18.5346L75.541 18.3367V18.1387C75.541 17.7428 75.5411 17.3469 75.673 16.885C78.7743 15.4993 82.4034 16.2252 82.4034 16.2252Z" fill="#FD5E5A"/>
<path d="M82.4665 35.4263C82.3345 34.1066 82.2686 32.8529 82.2686 31.5332C82.5325 33.1828 82.5985 34.4365 82.6645 35.6243C82.0046 35.8222 81.2128 36.2181 80.2891 35.8222C81.0149 35.8882 81.7407 35.6902 82.4665 35.4263Z" fill="#172866"/>
<path d="M80.0265 31.4011C79.8286 30.6753 79.2347 29.9495 78.3769 29.6856C76.9253 29.2896 76.0675 31.5331 75.0117 31.4671C75.7375 31.863 76.8593 30.5433 77.6511 30.2134C78.047 30.0155 78.4429 30.1474 78.9047 30.3454C79.3666 30.6093 79.6966 30.9392 80.0265 31.4011Z" fill="#172866"/>
<path d="M77.3867 30.6742C77.3867 31.1361 77.7166 31.532 78.1125 31.532C78.5084 31.532 78.8383 31.1361 78.8383 30.6742C78.8383 30.2123 78.5084 29.8164 78.1125 29.8164C77.7166 29.8164 77.3867 30.2123 77.3867 30.6742Z" fill="#172866"/>
<path d="M83.2598 31.8624C83.5237 31.1366 84.1175 30.4107 84.9753 30.2128C86.427 29.8829 87.2188 32.1263 88.2086 32.1923C87.4828 32.5222 86.361 31.2025 85.6352 30.8066C85.2393 30.6087 84.8434 30.7407 84.3815 30.8726C83.9856 31.1366 83.5897 31.4665 83.2598 31.8624Z" fill="#172866"/>
<path d="M85.8975 31.3328C85.8975 31.7947 85.5675 32.1906 85.1716 32.1246C84.7757 32.1246 84.5117 31.7287 84.5117 31.2668C84.5117 30.8049 84.8417 30.409 85.2376 30.475C85.6335 30.475 85.9634 30.8709 85.8975 31.3328Z" fill="#172866"/>
<path d="M80.5566 27.7718C80.6886 27.6399 79.4349 26.3202 77.9172 26.1222C76.3996 25.9903 74.75 27.7718 74.75 27.7718C74.75 27.7718 76.9934 26.3202 77.9172 26.7821C78.907 27.244 79.6988 28.3657 80.5566 27.7718Z" fill="#172866"/>
<path d="M78.5105 12.7918C75.2773 13.1877 70.1306 12.3299 67.7551 18.0046C66.3694 21.2379 63.4661 27.4404 63.4661 38.3938C63.4661 54.824 48.6855 62.0823 48.6855 62.0823L55.152 65.4475L59.0451 62.0823L56.4057 68.0869L67.0292 69.2086L67.4912 61.3565L69.6686 70.2644L76.0691 69.2086C76.0691 69.2086 72.7039 42.3529 72.506 32.1913C72.5719 32.2573 72.5719 32.2573 72.5719 32.2573C72.5719 32.2573 72.506 30.9376 72.506 29.288C72.506 28.8261 72.506 28.2982 72.506 27.7703C72.506 26.1867 72.6379 24.4711 72.8359 23.3494C73.2978 20.578 74.2875 19.1263 76.597 17.9386C78.9064 16.7509 87.2865 20.1161 87.2865 20.1161C86.8906 15.0353 81.7438 12.3959 78.5105 12.7918Z" fill="#1B2B80"/>
<path d="M82.7987 13.7153C86.8898 14.705 88.0775 21.3695 91.4427 24.9326C94.8079 28.4958 93.9501 33.6426 92.3665 37.0738C90.7829 40.505 88.2095 38.2615 88.2095 38.2615C88.2095 38.2615 89.5292 39.0533 90.387 36.216C91.2448 33.3786 89.7272 31.2012 85.2402 29.6175C80.7533 28.0339 76.4642 18.0043 76.4642 18.0043C76.3982 16.0247 78.7737 12.7255 82.7987 13.7153Z" fill="#2F499F"/>
<path d="M88.2077 38.2618C89.7254 39.2515 91.9028 35.1605 90.3192 32.5211C89.1315 30.4756 86.6241 29.6178 84.5786 28.694C81.3453 26.7145 78.31 21.3037 76.3965 17.9385C77.7822 21.8976 80.6195 27.4403 84.1166 29.6178L84.9745 30.0137C85.8323 30.4096 88.4056 31.1354 89.7253 32.917C90.7151 34.3686 90.2532 36.5462 89.5934 37.6019C89.2635 38.1298 88.8016 38.4597 88.2077 38.2618Z" fill="#003135"/>
<path d="M73.2966 32.7851C73.2966 32.7851 72.1749 27.5064 70.2613 28.8261C68.3478 30.0798 70.3933 35.8864 72.1749 35.8864C73.9565 35.8864 73.2966 32.7851 73.2966 32.7851Z" fill="#FC7575"/>
<path d="M71.4495 29.9479C71.4495 29.9479 74.2208 34.6988 72.3072 34.171C70.4597 33.6431 69.6679 29.0241 71.4495 29.9479Z" fill="#FD5E5A"/>
<path d="M78.5107 34.4344C78.3127 35.0282 77.257 35.2262 76.1352 34.8303C75.0135 34.4344 74.2877 33.5766 74.4856 32.9828C74.6836 32.3889 75.7393 32.1909 76.861 32.5868C77.9828 32.9827 78.7086 33.8405 78.5107 34.4344Z" fill="#FD5E5A"/>
<path d="M87.5478 34.1068C87.6138 34.7007 86.888 35.2945 85.8982 35.4925C84.9084 35.6245 84.0506 35.2945 83.9846 34.7007C83.9186 34.1068 84.6445 33.513 85.6342 33.315C86.558 33.1831 87.4158 33.5129 87.5478 34.1068Z" fill="#FD5E5A"/>
<path d="M376.17 158.489C375.378 157.631 341 165.153 341 165.153L348.72 108.802L354.791 74.4901L365.414 50.5377C365.414 50.5377 378.611 46.4467 379.403 47.8324L383.758 91.2502L376.17 158.489Z" fill="#26253A"/>
<path d="M387.848 297.978L388.904 303.785C388.904 303.785 386.264 312.693 382.239 316.85C378.214 321.007 369.57 321.271 369.57 317.708C369.57 314.145 378.61 303.257 378.61 298.968C378.61 294.679 387.848 297.978 387.848 297.978Z" fill="#4C5063"/>
<path d="M360.467 299.034L361.985 309.79C361.985 309.79 355.848 309.79 351.559 309.79C347.27 309.79 335.459 309.79 335.459 309.79C335.459 309.79 336.317 307.15 344.037 305.567C351.757 303.983 352.153 301.212 352.153 301.212L351.559 294.283L358.554 293.228L360.467 299.034Z" fill="#4C5063"/>
<path d="M371.551 175.841L355.913 232.588L361.654 301.014H351.558L337.701 228.629L351.558 145.752L371.551 175.841Z" fill="#464F7C"/>
<path d="M351.559 143.575L360.862 175.841C360.862 175.841 375.181 224.01 377.49 251.921C379.8 279.833 377.49 298.837 377.49 298.837L390.226 300.948C390.226 300.948 397.616 243.08 394.844 223.614C392.073 204.215 395.438 156.904 395.438 156.904L390.226 143.509H351.559V143.575Z" fill="#5D69A5"/>
<path d="M390.224 54.561C390.224 54.561 373.794 45.5211 363.104 56.5405C352.415 67.5599 351.557 98.7047 351.557 98.7047V134.732L350.039 150.767L390.092 145.884L384.681 90.9185L390.224 54.561Z" fill="#B73E6B"/>
<path d="M355.914 107.945L382.176 50.5381L399.068 56.5427L393.195 107.945L404.215 165.681C404.215 165.681 361.193 161.854 355.914 167.265V107.945Z" fill="#7D87B7"/>
<path d="M363.105 56.4766C363.105 56.4766 353.339 88.3471 353.339 98.1128C353.339 107.879 345.619 165.087 345.619 165.087H341L347.4 98.1128L355.319 67.496L363.105 56.4766Z" fill="#7D87B7"/>
<path d="M365.416 50.5381L352.549 108.802L355.386 67.5621L357.96 64.7248L355.914 65.1867L361.061 53.8373L365.416 50.5381Z" fill="#979FC5"/>
<path d="M322.92 118.831C329.783 119.49 332.884 119.952 333.082 119.425C332.686 118.897 331.168 118.567 326.351 117.907C323.58 117.511 319.093 116.323 318.565 115.795C317.773 114.674 320.347 114.938 321.732 115.201C321.864 115.201 336.051 118.303 337.107 116.257C338.229 114.212 334.138 113.486 331.696 113.09C329.255 112.694 327.935 110.517 328.859 110.121C329.98 109.659 332.488 112.232 336.513 112.628C340.01 112.958 345.091 113.75 347.334 114.278L349.446 115.729L355.912 115.267L355.582 121.866L350.634 123.186C346.411 124.769 340.142 126.815 335.919 127.541C331.498 128.332 327.803 128.134 325.889 127.805C325.428 127.739 325.428 127.145 325.823 127.079C327.011 126.881 328.661 126.815 329.914 126.749C333.874 126.551 335.193 125.759 335.391 124.967C334.863 124.373 333.28 124.373 327.869 124.769C325.362 124.901 321.93 125.165 321.402 124.901C319.225 123.384 324.768 123.12 327.341 123.12C329.914 123.12 332.752 123.384 333.082 122.196C333.214 121.8 329.783 121.272 325.56 121.14C310.185 120.414 315.332 118.105 322.92 118.831Z" fill="#FC7575"/>
<path d="M399.065 56.4752C399.065 56.4752 405.004 54.8915 407.775 76.0066C410.546 97.0557 404.41 124.637 399.065 127.277C393.72 129.916 348.719 124.109 348.719 124.109L351.556 110.846C351.556 110.846 379.732 111.506 385.208 105.898C390.619 100.289 391.147 83.6608 390.289 74.489C389.365 65.3171 399.065 56.4752 399.065 56.4752Z" fill="#979FC5"/>
<path d="M360.203 8.43705C360.203 8.43705 354.066 16.2232 353.076 21.634C352.02 27.1767 350.635 36.0846 350.635 36.0846L353.01 36.1506C353.01 36.1506 354.858 41.1654 354.792 44.4646C354.726 47.7638 359.807 45.8503 362.776 45.9163C365.679 45.9823 372.344 43.6068 375.115 34.171C377.886 24.8012 383.033 7.97516 360.203 8.43705Z" fill="#FC7575"/>
<path d="M380.789 55.4192C380.789 55.4192 363.501 60.7639 364.359 59.9061C365.151 59.1143 363.963 47.2371 363.699 43.344C364.359 41.7604 369.374 29.7512 369.044 30.543L370.1 28.1016L380.789 55.4192Z" fill="#FC7575"/>
<path d="M352.349 2.43369C352.085 2.89559 347.136 12.4634 355.054 16.4224C362.906 20.3815 365.084 15.1028 367.129 18.468C369.175 21.8332 365.018 27.0459 366.667 30.1472L369.307 30.7411C369.307 30.7411 369.901 29.1574 370.956 29.1574C372.012 29.1574 372.078 37.5375 373.794 37.6035C375.509 37.6695 379.006 30.6751 380.722 27.3759C382.438 24.1427 386.067 13.0572 379.996 10.0219C373.926 6.98663 371.22 9.09815 371.286 6.3268C371.352 3.55545 368.647 6.39277 368.647 6.39277C368.647 6.39277 367.261 4.28129 368.251 1.97183C369.241 -0.337627 361.784 -1.3934 359.937 3.22552C358.089 7.84444 355.384 -2.58114 352.349 2.43369Z" fill="#2D1175"/>
<path d="M368.781 26.0563C368.781 26.0563 368.517 31.4671 369.771 31.533C371.024 31.599 373.928 28.5637 373.532 25.2645C373.136 21.9653 369.441 22.2952 368.781 26.0563Z" fill="#FC7575"/>
<path d="M369.637 25.4626C369.637 25.4626 368.977 27.5741 369.9 28.6298C370.824 29.6196 372.738 27.3101 371.748 25.5286C370.758 23.747 369.901 24.2089 369.637 25.4626Z" fill="#FD5E5A"/>
<path d="M355.848 23.5479L355.584 24.8675C355.584 24.8675 357.827 24.6696 359.015 25.9233C360.203 27.243 360.401 27.375 360.401 27.375C360.401 27.375 359.873 24.4057 355.848 23.5479Z" fill="#2D1175"/>
<path d="M358.154 27.7068C358.154 28.3667 357.692 28.8946 357.164 28.8946C356.637 28.8946 356.175 28.3007 356.241 27.6408C356.241 26.981 356.703 26.4531 357.23 26.4531C357.758 26.4531 358.154 27.047 358.154 27.7068Z" fill="#2D1175"/>
<path d="M355.914 39.716C356.64 39.716 357.432 39.584 358.092 39.2541C358.422 39.0561 358.619 38.7922 358.817 38.5282C359.015 38.2643 359.081 37.8684 359.081 37.5385V37.4725C359.081 37.2745 359.279 37.1426 359.543 37.1426C359.741 37.2086 359.873 37.4065 359.873 37.6045V37.6704C359.741 38.0664 359.609 38.5282 359.279 38.8582C359.015 39.1881 358.619 39.452 358.224 39.584C357.498 39.9139 356.706 39.9139 355.914 39.716Z" fill="#2D1175"/>
<path d="M348.522 12.2666C348.456 12.7285 348.852 13.5203 349.116 13.9162C350.436 15.8298 353.207 16.1597 354.989 16.4896C354.725 16.4896 352.283 16.8855 350.304 16.2257C348.126 15.5658 346.872 14.0482 346.477 12.5306L348.522 12.2666Z" fill="#2D1175"/>
<path d="M369.638 44.9932C368.78 45.785 365.943 47.6326 364.161 48.7543C363.897 45.785 363.699 43.4096 363.699 43.4096C363.699 43.4096 365.151 44.7292 369.044 30.4766C369.044 30.4766 369.044 30.4766 369.044 30.5426C369.242 31.7303 370.826 43.8714 369.638 44.9932Z" fill="#FD5E5A"/>
<path d="M354.658 42.2231C354.658 42.2231 354.196 44.3346 354.13 45.5883C354.064 46.776 357.033 48.2276 359.673 47.5678C362.378 46.842 366.139 45.1264 367.063 44.2686C367.987 43.4108 369.042 30.7417 369.042 30.7417L366.667 30.2139C366.667 30.2139 365.281 38.396 364.226 39.4517C363.236 40.3095 354.658 42.2231 354.658 42.2231Z" fill="#2D1175"/>
<path d="M380.129 123.451C380.129 125.892 384.682 127.938 390.225 127.938C395.833 127.938 400.32 125.958 400.32 123.451C400.32 121.009 395.767 118.964 390.225 118.964C384.616 118.964 380.129 121.009 380.129 123.451Z" fill="#B96E16"/>
<path d="M390.027 126.814C390.027 126.748 390.093 126.682 390.159 126.682H390.225C390.621 126.682 390.951 126.682 391.347 126.682C391.413 126.682 391.479 126.748 391.479 126.814C391.479 126.88 391.413 126.946 391.347 126.946C390.951 126.946 390.621 126.946 390.225 126.946H390.159C390.093 126.946 390.027 126.88 390.027 126.814ZM389.037 126.88C388.641 126.88 388.311 126.814 387.916 126.814C387.85 126.814 387.784 126.748 387.784 126.682C387.784 126.616 387.85 126.55 387.916 126.55C388.246 126.616 388.641 126.616 389.037 126.616C389.103 126.616 389.169 126.682 389.169 126.748C389.235 126.88 389.169 126.88 389.037 126.88ZM392.337 126.682C392.337 126.616 392.403 126.55 392.469 126.55C392.864 126.484 393.194 126.484 393.59 126.418C393.656 126.418 393.722 126.484 393.722 126.55C393.722 126.616 393.656 126.682 393.59 126.682C393.194 126.748 392.864 126.814 392.469 126.814C392.403 126.814 392.337 126.748 392.337 126.682ZM386.86 126.682C386.464 126.616 386.134 126.55 385.738 126.484C385.672 126.484 385.606 126.418 385.606 126.286C385.606 126.22 385.672 126.154 385.804 126.154C386.134 126.22 386.53 126.286 386.86 126.352C386.926 126.352 386.992 126.418 386.992 126.484C386.992 126.616 386.926 126.682 386.86 126.682ZM394.514 126.352C394.514 126.286 394.514 126.22 394.646 126.154C395.042 126.088 395.372 125.956 395.702 125.89C395.768 125.89 395.834 125.89 395.9 125.956C395.9 126.022 395.9 126.088 395.834 126.154C395.504 126.286 395.108 126.352 394.712 126.484C394.58 126.484 394.514 126.418 394.514 126.352ZM384.616 126.154C384.22 126.022 383.891 125.89 383.561 125.758C383.495 125.758 383.429 125.626 383.495 125.56C383.495 125.494 383.627 125.428 383.693 125.494C384.022 125.626 384.352 125.758 384.748 125.89C384.814 125.89 384.88 126.022 384.814 126.088C384.814 126.088 384.748 126.154 384.616 126.154C384.682 126.154 384.616 126.154 384.616 126.154ZM396.692 125.692C396.692 125.626 396.692 125.56 396.758 125.494C397.087 125.362 397.483 125.164 397.747 125.032C397.813 124.966 397.879 125.032 397.945 125.098C398.011 125.164 397.945 125.23 397.879 125.296C397.549 125.494 397.219 125.626 396.889 125.824H396.824C396.758 125.758 396.692 125.758 396.692 125.692ZM382.571 125.23C382.175 125.032 381.911 124.768 381.647 124.504C381.581 124.438 381.581 124.373 381.647 124.307C381.713 124.241 381.779 124.241 381.845 124.307C382.043 124.505 382.373 124.768 382.703 124.966C382.769 125.032 382.769 125.098 382.769 125.164C382.769 125.23 382.703 125.23 382.637 125.23C382.571 125.23 382.571 125.23 382.571 125.23ZM398.605 124.57C398.539 124.504 398.539 124.439 398.605 124.373C398.935 124.043 399.067 123.779 399.067 123.515C399.067 123.449 399.133 123.383 399.199 123.383C399.265 123.383 399.331 123.449 399.331 123.515C399.331 123.845 399.133 124.241 398.737 124.57L398.671 124.636C398.671 124.571 398.605 124.57 398.605 124.57ZM381.251 123.581C381.185 123.581 381.119 123.515 381.119 123.449C381.119 123.119 381.317 122.723 381.713 122.393C381.779 122.327 381.845 122.327 381.911 122.393C381.977 122.459 381.977 122.525 381.911 122.591C381.581 122.921 381.449 123.185 381.383 123.449C381.383 123.515 381.317 123.581 381.251 123.581ZM398.605 122.591C398.407 122.393 398.077 122.129 397.747 121.931C397.681 121.865 397.681 121.799 397.681 121.733C397.747 121.667 397.813 121.667 397.879 121.667C398.275 121.865 398.539 122.129 398.803 122.393C398.869 122.459 398.869 122.525 398.803 122.591C398.803 122.591 398.737 122.657 398.671 122.657C398.671 122.657 398.671 122.591 398.605 122.591ZM382.571 121.865C382.505 121.799 382.571 121.733 382.637 121.667C382.967 121.469 383.297 121.337 383.627 121.139C383.693 121.139 383.759 121.139 383.825 121.205C383.825 121.271 383.825 121.337 383.759 121.403C383.363 121.535 383.033 121.733 382.769 121.865H382.703C382.637 121.931 382.571 121.931 382.571 121.865ZM396.758 121.469C396.428 121.337 396.098 121.205 395.702 121.073C395.636 121.073 395.57 120.941 395.636 120.875C395.636 120.809 395.702 120.743 395.834 120.809C396.23 120.941 396.56 121.073 396.889 121.205C396.955 121.205 397.021 121.337 396.955 121.403C396.889 121.403 396.89 121.469 396.758 121.469C396.824 121.469 396.758 121.469 396.758 121.469ZM384.616 120.941C384.616 120.875 384.616 120.809 384.682 120.743C385.012 120.611 385.408 120.545 385.804 120.479C385.87 120.479 385.936 120.479 386.002 120.611C386.002 120.677 386.002 120.743 385.87 120.809C385.474 120.875 385.144 121.007 384.814 121.073C384.814 121.073 384.814 121.073 384.748 121.073C384.682 121.073 384.616 121.007 384.616 120.941ZM394.646 120.743C394.316 120.677 393.92 120.611 393.59 120.545C393.524 120.545 393.458 120.479 393.458 120.413C393.458 120.347 393.524 120.281 393.59 120.281C393.986 120.347 394.316 120.413 394.712 120.479C394.778 120.479 394.844 120.545 394.844 120.677C394.778 120.743 394.778 120.743 394.646 120.743ZM386.794 120.413C386.794 120.347 386.86 120.281 386.926 120.281C387.256 120.215 387.652 120.15 388.048 120.15C388.114 120.15 388.18 120.215 388.18 120.281C388.18 120.347 388.114 120.413 388.048 120.413C387.652 120.479 387.322 120.479 386.926 120.545C386.86 120.545 386.794 120.479 386.794 120.413ZM392.469 120.413C392.139 120.347 391.743 120.348 391.347 120.348C391.281 120.348 391.215 120.281 391.215 120.215C391.215 120.149 391.281 120.084 391.347 120.084C391.743 120.084 392.073 120.15 392.469 120.15C392.535 120.15 392.6 120.215 392.6 120.281C392.6 120.347 392.535 120.413 392.469 120.413ZM388.971 120.15C388.971 120.084 389.037 120.018 389.103 120.018C389.433 120.018 389.829 120.018 390.159 120.018V120.15V120.018C390.225 120.018 390.291 120.084 390.291 120.15C390.291 120.215 390.225 120.281 390.159 120.281C389.763 120.281 389.433 120.281 389.037 120.281C389.037 120.281 388.971 120.281 388.971 120.15Z" fill="#FABE78"/>
<path d="M355.914 107.943L380.064 70.1338L377.491 64.5251L382.836 64.8551L390.226 53.0438L379.339 47.8311L355.914 107.943Z" fill="#979FC5"/>
<path d="M320.742 194.977H131.895V201.113H320.742V194.977Z" fill="#3E2720"/>
<path d="M148.521 201.113H143.176V309.592H148.521V201.113Z" fill="#3E2720"/>
<path d="M311.372 201.113H306.027V309.592H311.372V201.113Z" fill="#3E2720"/>
<path d="M302.794 201.113H297.449V309.592H302.794V201.113Z" fill="#3E2720"/>
<path d="M160.397 201.113H155.053V309.592H160.397V201.113Z" fill="#3E2720"/>
<path d="M186.329 138.165H157.494V194.252H186.329V138.165Z" fill="#99C8F2"/>
<path d="M186.527 138.165H183.756V194.252H186.527V138.165Z" fill="#85C5FF"/>
<path d="M155.053 138.165H186.923L192.928 126.552L165.148 126.42L155.053 138.165Z" fill="#0065BF"/>
<path d="M167.062 126.42L156.967 138.165H157.693L167.788 126.42H167.062Z" fill="#0C52CB"/>
<path d="M169.832 126.42L159.803 138.165H160.463L170.558 126.42H169.832Z" fill="#0C52CB"/>
<path d="M172.606 126.42L162.576 138.165H163.302L173.332 126.42H172.606Z" fill="#0C52CB"/>
<path d="M175.375 126.487L165.346 138.167H166.072L176.035 126.487H175.375Z" fill="#0C52CB"/>
<path d="M178.147 126.487L168.117 138.167H168.843L178.807 126.487H178.147Z" fill="#0C52CB"/>
<path d="M180.92 126.487L170.891 138.167H171.616L181.58 126.487H180.92Z" fill="#0C52CB"/>
<path d="M183.626 126.487L173.662 138.167H174.388L184.352 126.487H183.626Z" fill="#0C52CB"/>
<path d="M186.395 126.487L176.432 138.167H177.157L187.121 126.487H186.395Z" fill="#0C52CB"/>
<path d="M189.169 126.552L179.205 138.165H179.931L189.895 126.552H189.169Z" fill="#0C52CB"/>
<path d="M191.939 126.552L182.041 138.165H182.701L192.665 126.552H191.939Z" fill="#0C52CB"/>
<path d="M194.774 107.152L184.547 118.964H227.965L237.796 107.284L194.774 107.152Z" fill="#0065BF"/>
<path d="M227.964 118.962H186.328V194.316H227.964V118.962Z" fill="#99C8F2"/>
<path d="M242.747 118.962H227.967V194.316H242.747V118.962Z" fill="#85C5FF"/>
<path d="M242.747 118.963H227.967L237.799 107.284L242.747 112.431V118.963Z" fill="#004380"/>
<path d="M236.079 107.285L226.182 118.964H226.907L236.805 107.285H236.079Z" fill="#0C52CB"/>
<path d="M233.046 107.285L223.082 118.964H223.808L233.772 107.285H233.046Z" fill="#0C52CB"/>
<path d="M229.946 107.285L219.982 118.964H220.708L230.672 107.285H229.946Z" fill="#0C52CB"/>
<path d="M226.911 107.285L216.947 118.964H217.673L227.637 107.285H226.911Z" fill="#0C52CB"/>
<path d="M223.807 107.221L213.844 118.966H214.57L224.533 107.221H223.807Z" fill="#0C52CB"/>
<path d="M220.774 107.221L210.744 118.966H211.47L221.5 107.221H220.774Z" fill="#0C52CB"/>
<path d="M217.673 107.221L207.709 118.966H208.435L218.398 107.221H217.673Z" fill="#0C52CB"/>
<path d="M214.637 107.221L204.607 118.966H205.333L215.363 107.221H214.637Z" fill="#0C52CB"/>
<path d="M211.535 107.221L201.506 118.966H202.232L212.261 107.221H211.535Z" fill="#0C52CB"/>
<path d="M208.5 107.221L198.471 118.966H199.197L209.226 107.221H208.5Z" fill="#0C52CB"/>
<path d="M205.399 107.153L195.369 118.964H196.095L206.125 107.153H205.399Z" fill="#0C52CB"/>
<path d="M202.365 107.153L192.27 118.964H192.995L203.091 107.153H202.365Z" fill="#0C52CB"/>
<path d="M199.26 107.153L189.23 118.964H189.956L199.986 107.153H199.26Z" fill="#0C52CB"/>
<path d="M196.227 107.153L186.131 118.964H186.857L196.952 107.153H196.227Z" fill="#0C52CB"/>
<path d="M171.944 141.399H170.559V147.008H171.944V141.399Z" fill="#0065BF"/>
<path d="M173.991 141.399H172.605V147.008H173.991V141.399Z" fill="#0065BF"/>
<path d="M176.102 141.399H174.717V147.008H176.102V141.399Z" fill="#0065BF"/>
<path d="M178.145 141.399H176.76V147.008H178.145V141.399Z" fill="#0065BF"/>
<path d="M180.259 141.399H178.873V147.008H180.259V141.399Z" fill="#0065BF"/>
<path d="M182.302 141.399H180.916V147.008H182.302V141.399Z" fill="#0065BF"/>
<path d="M171.944 148.196H170.559V153.805H171.944V148.196Z" fill="#0065BF"/>
<path d="M173.991 148.196H172.605V153.805H173.991V148.196Z" fill="#0065BF"/>
<path d="M176.102 148.196H174.717V153.805H176.102V148.196Z" fill="#0065BF"/>
<path d="M178.145 148.196H176.76V153.805H178.145V148.196Z" fill="#0065BF"/>
<path d="M180.259 148.196H178.873V153.805H180.259V148.196Z" fill="#0065BF"/>
<path d="M182.302 148.196H180.916V153.805H182.302V148.196Z" fill="#0065BF"/>
<path d="M171.944 154.927H170.559V160.535H171.944V154.927Z" fill="#0065BF"/>
<path d="M173.991 154.927H172.605V160.535H173.991V154.927Z" fill="#0065BF"/>
<path d="M176.102 154.927H174.717V160.535H176.102V154.927Z" fill="#0065BF"/>
<path d="M178.145 154.927H176.76V160.535H178.145V154.927Z" fill="#0065BF"/>
<path d="M180.259 154.927H178.873V160.535H180.259V154.927Z" fill="#0065BF"/>
<path d="M182.302 154.927H180.916V160.535H182.302V154.927Z" fill="#0065BF"/>
<path d="M171.944 161.724H170.559V167.332H171.944V161.724Z" fill="#0065BF"/>
<path d="M173.991 161.724H172.605V167.332H173.991V161.724Z" fill="#0065BF"/>
<path d="M176.102 161.724H174.717V167.332H176.102V161.724Z" fill="#0065BF"/>
<path d="M178.145 161.724H176.76V167.332H178.145V161.724Z" fill="#0065BF"/>
<path d="M180.259 161.724H178.873V167.332H180.259V161.724Z" fill="#0065BF"/>
<path d="M182.302 161.724H180.916V167.332H182.302V161.724Z" fill="#0065BF"/>
<path d="M171.944 168.453H170.559V174.062H171.944V168.453Z" fill="#0065BF"/>
<path d="M173.991 168.453H172.605V174.062H173.991V168.453Z" fill="#0065BF"/>
<path d="M176.102 168.453H174.717V174.062H176.102V168.453Z" fill="#0065BF"/>
<path d="M178.145 168.453H176.76V174.062H178.145V168.453Z" fill="#0065BF"/>
<path d="M180.259 168.453H178.873V174.062H180.259V168.453Z" fill="#0065BF"/>
<path d="M182.302 168.453H180.916V174.062H182.302V168.453Z" fill="#0065BF"/>
<path d="M171.944 175.25H170.559V180.859H171.944V175.25Z" fill="#0065BF"/>
<path d="M173.991 175.25H172.605V180.859H173.991V175.25Z" fill="#0065BF"/>
<path d="M176.102 175.25H174.717V180.859H176.102V175.25Z" fill="#0065BF"/>
<path d="M178.145 175.25H176.76V180.859H178.145V175.25Z" fill="#0065BF"/>
<path d="M180.259 175.25H178.873V180.859H180.259V175.25Z" fill="#0065BF"/>
<path d="M182.302 175.25H180.916V180.859H182.302V175.25Z" fill="#0065BF"/>
<path d="M171.944 181.98H170.559V187.589H171.944V181.98Z" fill="#0065BF"/>
<path d="M173.991 181.98H172.605V187.589H173.991V181.98Z" fill="#0065BF"/>
<path d="M176.102 181.98H174.717V187.589H176.102V181.98Z" fill="#0065BF"/>
<path d="M178.145 181.98H176.76V187.589H178.145V181.98Z" fill="#0065BF"/>
<path d="M180.259 181.98H178.873V187.589H180.259V181.98Z" fill="#0065BF"/>
<path d="M182.302 181.98H180.916V187.589H182.302V181.98Z" fill="#0065BF"/>
<path d="M191.544 121.667H189.498V130.113H191.544V121.667Z" fill="#0065BF"/>
<path d="M194.643 121.667H192.598V130.113H194.643V121.667Z" fill="#0065BF"/>
<path d="M197.745 121.667H195.699V130.113H197.745V121.667Z" fill="#0065BF"/>
<path d="M200.913 121.667H198.867V130.113H200.913V121.667Z" fill="#0065BF"/>
<path d="M204.014 121.667H201.969V130.113H204.014V121.667Z" fill="#0065BF"/>
<path d="M207.116 121.667H205.07V130.113H207.116V121.667Z" fill="#0065BF"/>
<path d="M191.544 131.827H189.498V140.273H191.544V131.827Z" fill="#0065BF"/>
<path d="M194.643 131.827H192.598V140.273H194.643V131.827Z" fill="#0065BF"/>
<path d="M197.745 131.827H195.699V140.273H197.745V131.827Z" fill="#0065BF"/>
<path d="M200.913 131.827H198.867V140.273H200.913V131.827Z" fill="#0065BF"/>
<path d="M204.014 131.827H201.969V140.273H204.014V131.827Z" fill="#0065BF"/>
<path d="M207.116 131.827H205.07V140.273H207.116V131.827Z" fill="#0065BF"/>
<path d="M191.544 141.924H189.498V150.37H191.544V141.924Z" fill="#0065BF"/>
<path d="M194.643 141.924H192.598V150.37H194.643V141.924Z" fill="#0065BF"/>
<path d="M197.745 141.924H195.699V150.37H197.745V141.924Z" fill="#0065BF"/>
<path d="M200.913 141.924H198.867V150.37H200.913V141.924Z" fill="#0065BF"/>
<path d="M204.014 141.924H201.969V150.37H204.014V141.924Z" fill="#0065BF"/>
<path d="M207.116 141.924H205.07V150.37H207.116V141.924Z" fill="#0065BF"/>
<path d="M191.544 152.086H189.498V160.532H191.544V152.086Z" fill="#0065BF"/>
<path d="M194.643 152.086H192.598V160.532H194.643V152.086Z" fill="#0065BF"/>
<path d="M197.745 152.086H195.699V160.532H197.745V152.086Z" fill="#0065BF"/>
<path d="M200.913 152.086H198.867V160.532H200.913V152.086Z" fill="#0065BF"/>
<path d="M204.014 152.086H201.969V160.532H204.014V152.086Z" fill="#0065BF"/>
<path d="M207.116 152.086H205.07V160.532H207.116V152.086Z" fill="#0065BF"/>
<path d="M191.544 162.248H189.498V170.694H191.544V162.248Z" fill="#0065BF"/>
<path d="M194.643 162.248H192.598V170.694H194.643V162.248Z" fill="#0065BF"/>
<path d="M197.745 162.248H195.699V170.694H197.745V162.248Z" fill="#0065BF"/>
<path d="M200.913 162.248H198.867V170.694H200.913V162.248Z" fill="#0065BF"/>
<path d="M204.014 162.248H201.969V170.694H204.014V162.248Z" fill="#0065BF"/>
<path d="M207.116 162.248H205.07V170.694H207.116V162.248Z" fill="#0065BF"/>
<path d="M191.544 172.344H189.498V180.79H191.544V172.344Z" fill="#0065BF"/>
<path d="M194.643 172.344H192.598V180.79H194.643V172.344Z" fill="#0065BF"/>
<path d="M197.745 172.344H195.699V180.79H197.745V172.344Z" fill="#0065BF"/>
<path d="M200.913 172.344H198.867V180.79H200.913V172.344Z" fill="#0065BF"/>
<path d="M204.014 172.344H201.969V180.79H204.014V172.344Z" fill="#0065BF"/>
<path d="M207.116 172.344H205.07V180.79H207.116V172.344Z" fill="#0065BF"/>
<path d="M191.544 182.504H189.498V190.95H191.544V182.504Z" fill="#0065BF"/>
<path d="M194.643 182.504H192.598V190.95H194.643V182.504Z" fill="#0065BF"/>
<path d="M197.745 182.504H195.699V190.95H197.745V182.504Z" fill="#0065BF"/>
<path d="M200.913 182.504H198.867V190.95H200.913V182.504Z" fill="#0065BF"/>
<path d="M204.014 182.504H201.969V190.95H204.014V182.504Z" fill="#0065BF"/>
<path d="M207.116 182.504H205.07V190.95H207.116V182.504Z" fill="#0065BF"/>
<path d="M211.604 121.667H209.559V130.113H211.604V121.667Z" fill="#0065BF"/>
<path d="M214.77 121.667H212.725V130.113H214.77V121.667Z" fill="#0065BF"/>
<path d="M217.872 121.667H215.826V130.113H217.872V121.667Z" fill="#0065BF"/>
<path d="M220.973 121.667H218.928V130.113H220.973V121.667Z" fill="#0065BF"/>
<path d="M224.141 121.667H222.096V130.113H224.141V121.667Z" fill="#0065BF"/>
<path d="M227.241 121.667H225.195V130.113H227.241V121.667Z" fill="#0065BF"/>
<path d="M211.604 131.827H209.559V140.273H211.604V131.827Z" fill="#0065BF"/>
<path d="M214.77 131.827H212.725V140.273H214.77V131.827Z" fill="#0065BF"/>
<path d="M217.872 131.827H215.826V140.273H217.872V131.827Z" fill="#0065BF"/>
<path d="M220.973 131.827H218.928V140.273H220.973V131.827Z" fill="#0065BF"/>
<path d="M224.141 131.827H222.096V140.273H224.141V131.827Z" fill="#0065BF"/>
<path d="M227.241 131.827H225.195V140.273H227.241V131.827Z" fill="#0065BF"/>
<path d="M211.604 141.924H209.559V150.37H211.604V141.924Z" fill="#0065BF"/>
<path d="M214.77 141.924H212.725V150.37H214.77V141.924Z" fill="#0065BF"/>
<path d="M217.872 141.924H215.826V150.37H217.872V141.924Z" fill="#0065BF"/>
<path d="M220.973 141.924H218.928V150.37H220.973V141.924Z" fill="#0065BF"/>
<path d="M224.141 141.924H222.096V150.37H224.141V141.924Z" fill="#0065BF"/>
<path d="M227.241 141.924H225.195V150.37H227.241V141.924Z" fill="#0065BF"/>
<path d="M211.604 152.086H209.559V160.532H211.604V152.086Z" fill="#0065BF"/>
<path d="M214.77 152.086H212.725V160.532H214.77V152.086Z" fill="#0065BF"/>
<path d="M217.872 152.086H215.826V160.532H217.872V152.086Z" fill="#0065BF"/>
<path d="M220.973 152.086H218.928V160.532H220.973V152.086Z" fill="#0065BF"/>
<path d="M224.141 152.086H222.096V160.532H224.141V152.086Z" fill="#0065BF"/>
<path d="M227.241 152.086H225.195V160.532H227.241V152.086Z" fill="#0065BF"/>
<path d="M211.604 162.248H209.559V170.694H211.604V162.248Z" fill="#0065BF"/>
<path d="M214.77 162.248H212.725V170.694H214.77V162.248Z" fill="#0065BF"/>
<path d="M217.872 162.248H215.826V170.694H217.872V162.248Z" fill="#0065BF"/>
<path d="M220.973 162.248H218.928V170.694H220.973V162.248Z" fill="#0065BF"/>
<path d="M224.141 162.248H222.096V170.694H224.141V162.248Z" fill="#0065BF"/>
<path d="M227.241 162.248H225.195V170.694H227.241V162.248Z" fill="#0065BF"/>
<path d="M211.604 172.344H209.559V180.79H211.604V172.344Z" fill="#0065BF"/>
<path d="M214.77 172.344H212.725V180.79H214.77V172.344Z" fill="#0065BF"/>
<path d="M217.872 172.344H215.826V180.79H217.872V172.344Z" fill="#0065BF"/>
<path d="M220.973 172.344H218.928V180.79H220.973V172.344Z" fill="#0065BF"/>
<path d="M224.141 172.344H222.096V180.79H224.141V172.344Z" fill="#0065BF"/>
<path d="M227.241 172.344H225.195V180.79H227.241V172.344Z" fill="#0065BF"/>
<path d="M211.604 182.504H209.559V190.95H211.604V182.504Z" fill="#0065BF"/>
<path d="M214.77 182.504H212.725V190.95H214.77V182.504Z" fill="#0065BF"/>
<path d="M217.872 182.504H215.826V190.95H217.872V182.504Z" fill="#0065BF"/>
<path d="M220.973 182.504H218.928V190.95H220.973V182.504Z" fill="#0065BF"/>
<path d="M224.141 182.504H222.096V190.95H224.141V182.504Z" fill="#0065BF"/>
<path d="M227.241 182.504H225.195V190.95H227.241V182.504Z" fill="#0065BF"/>
<path d="M270.128 194.116H258.977V100.748L270.128 95.8652V194.116Z" fill="#0C52CB"/>
<path d="M281.872 107.215L270.127 95.8652V194.116H282.202L281.872 107.215Z" fill="#99C8F2"/>
<path d="M258.976 103.323H252.246V194.118H258.976V103.323Z" fill="#0D3153"/>
<path d="M252.973 100.287H233.508V194.117H252.973V100.287Z" fill="#0065BF"/>
<path d="M254.357 99.5605H229.547V100.418H254.357V99.5605Z" fill="#004380"/>
<path d="M258.977 102.926H252.973V103.784H258.977V102.926Z" fill="#004380"/>
<path d="M282.34 107.94L270.067 96.3931L259.179 101.144L258.783 100.352L270.198 95.4033L282.934 107.347L282.34 107.94Z" fill="#004380"/>
<path d="M267.687 101.936H264.85V108.204H267.687V101.936Z" fill="#004380"/>
<path d="M264.519 115.267H262.012V120.809H264.519V115.267Z" fill="#004380"/>
<path d="M266.235 127.804H264.85V133.544H266.235V127.804Z" fill="#004380"/>
<path d="M248.947 105.171H244.328V110.582H248.947V105.171Z" fill="#4E98D9"/>
<path d="M253.434 112.759H234.826V114.54H253.434V112.759Z" fill="#4E98D9"/>
<path d="M253.633 117.576H235.025V119.358H253.633V117.576Z" fill="#4E98D9"/>
<path d="M253.764 122.392H235.156V124.173H253.764V122.392Z" fill="#4E98D9"/>
<path d="M253.895 127.275H235.287V129.057H253.895V127.275Z" fill="#4E98D9"/>
<path d="M254.094 132.093H235.486V133.874H254.094V132.093Z" fill="#4E98D9"/>
<path d="M254.227 136.908H235.619V138.69H254.227V136.908Z" fill="#4E98D9"/>
<path d="M254.358 141.792H235.75V143.574H254.358V141.792Z" fill="#4E98D9"/>
<path d="M254.557 146.609H235.949V148.391H254.557V146.609Z" fill="#4E98D9"/>
<path d="M254.688 151.424H236.08V153.205H254.688V151.424Z" fill="#4E98D9"/>
<path d="M254.887 156.309H236.279V158.09H254.887V156.309Z" fill="#4E98D9"/>
<path d="M255.016 161.126H236.408V162.908H255.016V161.126Z" fill="#4E98D9"/>
<path d="M255.153 165.94H236.545V167.722H255.153V165.94Z" fill="#4E98D9"/>
<path d="M255.346 170.825H236.738V172.607H255.346V170.825Z" fill="#4E98D9"/>
<path d="M255.483 175.643H236.875V177.424H255.483V175.643Z" fill="#4E98D9"/>
<path d="M255.612 180.457H237.004V182.239H255.612V180.457Z" fill="#4E98D9"/>
<path d="M255.813 185.342H237.205V187.123H255.813V185.342Z" fill="#4E98D9"/>
<path d="M328.327 194.055H124.369V198.014H328.327V194.055Z" fill="#D86B47"/>
</svg>
