<svg width="431" height="360" viewBox="0 0 431 360" fill="none" xmlns="http://www.w3.org/2000/svg">
<path d="M378.42 244.503C375.145 245.863 367.473 249.308 360.83 252.39C363.263 252.662 369.064 254.113 370.935 252.39C370.935 252.39 374.864 261.456 373.274 265.354C371.683 269.252 353.813 270.975 357.275 271.881C360.736 272.788 374.49 269.978 374.49 269.978C374.49 269.978 375.707 279.315 371.964 281.128C368.222 282.942 348.48 280.222 350.351 282.035C352.222 283.848 370.28 285.752 372.338 283.758C372.338 283.758 372.712 294.908 366.163 296.087C359.614 297.265 341.556 287.746 343.147 290.375C344.737 293.004 361.298 300.529 366.444 297.628C366.444 297.628 361.859 308.325 357.742 308.325C353.626 308.325 343.334 294.636 341.276 296.631C339.217 298.625 350.258 308.507 356.433 309.595C356.433 309.595 354 315.669 346.141 313.855C338.188 312.042 339.591 300.076 337.159 301.073C334.726 302.07 337.065 315.215 345.112 315.215C345.112 315.215 331.919 318.207 328.832 311.317C327.99 309.413 327.522 307.782 327.335 306.512C326.118 311.952 325.464 318.479 325.089 325.097H323.592C324.06 317.028 325.183 308.869 327.148 302.342C326.118 302.886 324.434 303.521 322.282 303.702C322.189 311.408 322.095 318.751 322.002 325.006H320.411C320.505 319.386 320.692 312.496 320.879 303.702C320.505 303.702 320.037 303.611 319.569 303.611C319.101 311.136 318.821 318.298 318.54 325.006H316.388C316.669 318.116 317.136 310.683 317.698 303.158C317.324 302.977 316.856 302.886 316.482 302.705C315.452 302.251 314.61 301.526 313.955 300.62C314.049 309.323 314.049 317.663 313.955 325.006H311.616C311.71 316.394 311.71 306.422 311.616 296.177C310.4 292.461 310.213 288.381 310.493 286.387C306.751 285.389 302.26 282.851 300.482 281.763C303.289 291.826 306.845 306.875 309.184 325.006H307.593C305.348 307.51 301.979 293.004 299.172 283.032C298.705 284.211 298.05 285.661 296.927 286.749C294.962 288.653 291.126 282.126 291.126 278.862C291.126 275.598 295.243 278.771 295.243 276.868C295.243 275.054 294.681 275.961 289.442 275.961C284.202 275.961 282.331 265.535 282.331 265.535C282.331 265.535 290.284 266.442 290.284 264.992C290.284 263.541 284.015 264.357 279.992 263.269C275.969 262.272 273.724 253.75 273.724 253.75C273.724 253.75 285.232 257.014 285.232 255.563C285.232 254.113 276.343 252.753 274.659 251.121C272.975 249.489 272.414 242.146 272.414 242.146C272.414 242.146 280.086 249.036 281.302 249.036C282.518 249.036 273.162 241.421 274.098 240.605C274.94 239.789 275.314 236.163 275.314 236.163C276.998 237.795 279.711 235.619 281.489 237.341C283.267 239.064 286.354 251.937 287.664 253.206C288.974 254.475 284.109 242.871 286.354 240.696C288.6 238.52 294.588 243.959 295.711 245.138C296.927 246.316 292.904 258.827 294.494 260.368C296.085 261.909 295.804 249.308 297.021 248.039C298.33 246.77 301.699 250.033 302.728 253.659C303.757 257.376 294.962 263.722 297.488 266.17C300.015 268.618 302.354 259.371 304.506 257.195C306.096 255.654 309.558 258.736 311.148 261.456C310.774 250.215 310.119 240.242 309.277 233.08C307.5 237.795 298.237 243.415 291.687 236.979C290.284 238.067 288.6 238.52 286.448 237.795C278.682 235.075 278.027 233.262 279.618 232.536C281.208 231.811 296.366 223.561 294.494 222.655C292.623 221.748 279.057 232.083 276.53 230.814C273.911 229.545 269.981 224.468 270.449 224.287C270.917 224.105 289.723 217.487 287.571 216.49C285.512 215.493 271.01 225.193 268.203 220.932C265.49 216.672 265.396 214.043 265.584 213.045C265.864 212.048 282.051 210.87 281.489 209.691C280.928 208.603 265.677 210.87 264.461 208.422C263.245 205.974 262.964 202.438 264.274 201.804C265.584 201.169 273.536 203.526 272.881 202.257C272.32 200.988 264.554 200.625 264.835 199.447C265.116 198.268 265.958 191.832 265.396 190.653C265.396 190.653 270.917 187.118 272.227 185.395C273.536 183.673 275.033 184.216 275.408 185.214C275.875 186.12 279.431 200.535 279.899 198.903C280.273 197.271 275.782 184.488 276.718 184.035C277.653 183.582 282.425 180.046 283.922 182.131C285.419 184.216 285.887 203.345 287.571 203.436C289.255 203.617 285.138 181.315 285.138 181.315C285.138 181.315 290.752 181.587 292.81 184.035C294.869 186.483 292.717 208.875 294.401 208.694C296.178 208.603 295.336 185.123 295.336 185.123C295.336 185.123 302.354 188.296 302.821 191.56C303.289 194.823 298.424 209.51 299.921 210.235C301.418 210.96 303.102 195.821 303.102 195.821C303.102 195.821 309.184 198.45 309.558 202.892C309.932 207.334 303.944 212.864 304.693 214.314C305.348 215.765 310.681 209.782 311.523 206.155C312.458 202.529 319.101 221.114 313.488 223.652C311.803 224.468 310.493 224.74 309.558 224.74C310.306 226.462 310.494 228.094 310.868 229.726C312.178 237.885 313.02 251.665 313.488 267.077C314.517 266.079 315.265 265.354 315.265 265.354C316.762 265.898 317.604 267.711 318.072 270.068C318.821 269.162 319.288 268.618 319.288 268.618C319.288 268.618 319.85 270.612 320.785 273.241C321.066 271.247 321.347 269.252 321.627 267.258C321.627 266.986 321.627 266.714 321.627 266.533C321.44 265.626 321.44 264.901 321.627 264.357C321.815 252.209 322.095 238.248 322.282 222.202C322.282 222.111 322.376 222.02 322.376 221.93C322.282 218.847 321.253 191.469 317.324 184.126C313.207 176.329 310.493 167.264 310.493 167.264C310.493 167.264 314.049 172.703 317.23 175.695C320.411 178.777 323.124 179.321 323.124 182.041C323.124 184.76 319.008 193.645 321.627 192.285C324.341 191.016 323.686 185.667 324.621 185.667C325.557 185.667 329.487 197.906 329.487 198.54C329.487 199.175 322.75 204.252 324.528 205.974C326.306 207.697 329.112 199.447 330.142 200.535C331.171 201.532 331.451 210.507 331.451 212.864C331.451 215.221 326.306 213.952 328.645 216.218C330.984 218.485 331.451 227.55 331.451 231.721C337.065 219.301 342.024 216.128 350.257 211.504C348.48 211.504 346.234 211.051 344.363 209.238C340.621 205.611 338.937 192.376 347.544 188.659C347.17 186.664 347.451 184.67 348.948 182.857C354.374 176.239 356.339 176.42 356.339 178.505C356.339 180.59 357.555 200.263 359.052 198.812C360.549 197.362 356.9 178.233 359.052 176.148C361.204 174.063 367.192 172.522 367.192 173.156C367.192 173.7 365.508 196.364 367.192 194.733C368.876 193.101 366.163 173.247 371.028 172.612C375.894 171.887 378.139 173.066 378.981 173.882C379.823 174.698 374.397 192.013 375.519 192.013C376.736 192.013 380.759 175.06 383.379 175.06C385.998 175.06 389.18 176.511 389.18 178.142C389.18 179.774 384.033 186.846 385.343 186.846C386.653 186.846 390.115 179.049 390.957 179.956C391.893 180.862 397.226 184.942 398.442 184.942C398.442 184.942 399.378 192.376 400.313 194.642C401.343 196.908 400.22 198.087 399.191 198.087C398.161 198.087 384.127 194.642 385.437 195.821C386.653 196.999 399.752 198.722 399.752 199.9C399.752 201.079 400.968 207.787 398.536 208.331C396.103 208.784 379.168 199.809 378.42 201.532C377.578 203.164 398.723 210.144 398.723 210.144C398.723 210.144 396.197 215.765 393.296 216.672C390.396 217.578 371.59 204.161 371.028 206.065C370.467 207.878 391.238 218.757 391.238 218.757C391.238 218.757 385.718 224.377 382.724 223.199C379.73 222.02 368.783 209.691 367.567 210.87C366.35 212.048 378.981 221.295 378.981 221.295C378.981 221.295 374.209 226.281 370.186 224.377C366.163 222.564 363.637 213.68 362.14 213.68C360.643 213.68 363.73 222.111 366.537 224.831C369.344 227.55 350.445 225.193 350.445 218.031C350.445 215.04 351.006 213.317 351.567 212.411C351.567 212.411 351.474 212.411 351.474 212.501C348.573 214.224 344.644 216.128 341.463 219.391C333.323 227.369 328.083 242.962 324.715 261.093C325.838 260.277 326.773 260.368 326.773 261.365C326.773 263.088 330.984 280.675 333.042 278.681C335.1 276.686 327.148 260.64 329.955 257.83C331.639 256.198 335.475 254.113 338.562 253.025C339.872 251.756 343.895 250.396 342.679 246.679C341.463 242.962 347.918 239.698 347.918 239.698C347.918 239.698 351.942 245.319 355.591 245.319C359.24 245.319 351.006 241.602 351.006 239.426C351.006 237.251 363.45 233.352 363.45 233.352C363.45 233.352 359.988 240.514 359.988 243.415C361.485 242.418 363.076 241.421 364.385 240.696C365.602 237.523 365.976 233.534 368.034 233.534C370.28 233.534 371.215 235.166 372.619 236.525C374.303 235.619 376.361 234.622 378.42 233.896C379.355 231.539 380.104 229.001 380.759 229.001C381.975 229.001 384.969 231.539 390.864 230.542C396.664 229.545 396.009 230.361 400.781 234.984C405.553 239.608 408.547 244.141 408.547 244.141C408.547 244.141 407.611 243.687 406.114 243.143C398.91 241.602 383.94 242.237 378.42 244.503ZM297.395 228.094C296.74 227.822 295.804 232.264 293.465 235.437C293.746 235.256 294.12 235.166 294.494 235.075C296.833 234.531 298.424 228.548 297.395 228.094ZM311.148 265.898C308.809 268.437 302.634 271.7 304.131 273.151C305.161 274.148 308.529 271.7 311.242 269.343C311.242 268.255 311.148 267.077 311.148 265.898ZM315.359 285.752C314.985 286.205 314.61 286.477 314.236 286.658C314.142 286.658 313.955 286.749 313.862 286.749C313.862 287.202 313.862 287.746 313.862 288.2C315.452 290.194 317.23 292.461 318.633 292.642C318.727 291.735 318.821 290.829 318.914 289.922C317.978 288.834 316.575 287.474 315.359 285.752ZM353.252 199.719C353.719 199.265 350.257 196.002 348.386 192.013C348.386 192.376 348.386 192.829 348.293 193.282C347.825 196.002 352.409 200.535 353.252 199.719ZM324.715 251.756C325.557 247.948 327.803 241.33 328.27 240.061C328.832 238.61 329.3 237.341 329.767 236.072C328.645 236.707 327.148 236.435 325.744 235.166C323.405 232.899 324.341 224.559 322.844 222.927C323.031 226.372 322.937 241.874 322.75 260.821C323.405 257.558 324.06 254.475 324.715 251.756ZM322.844 271.338C322.75 271.881 322.657 272.425 322.563 272.969C322.563 274.873 322.563 276.777 322.47 278.681C324.341 283.486 326.586 288.109 327.99 287.474C329.955 286.749 325.37 277.955 322.844 271.338ZM345.018 256.379C344.176 256.198 343.427 255.926 342.585 255.654C342.211 260.821 340.34 271.7 343.895 271.7C347.076 271.7 345.018 261.819 345.018 256.379ZM356.62 254.385C355.216 257.467 352.503 263.632 354.561 263.088C356.901 262.544 357.93 255.291 359.333 253.025C358.491 253.478 357.555 253.931 356.62 254.385Z" fill="#99BEFF"/>
<path d="M335.473 348.035H299.265C290.47 345.496 284.576 341.236 284.576 336.34C284.576 331.717 289.721 327.637 297.674 325.099H336.97C344.923 327.637 350.069 331.717 350.069 336.34C350.163 341.236 344.362 345.587 335.473 348.035Z" fill="#99BEFF"/>
<path d="M86.1296 221.389C84.2583 222.114 83.1355 222.658 83.1355 222.658C83.1355 222.658 86.6909 217.219 92.4917 211.598C98.1991 206.068 97.4506 205.071 104.468 206.159C111.485 207.337 115.134 204.255 116.537 204.255C117.286 204.255 118.221 207.337 119.344 210.148C121.777 210.964 124.303 212.142 126.268 213.321C127.858 211.689 129.075 209.695 131.788 209.695C134.314 209.695 134.782 214.409 136.185 218.307C137.87 219.123 139.741 220.301 141.518 221.571C141.518 218.035 137.308 209.513 137.308 209.513C137.308 209.513 152.278 214.227 152.278 216.766C152.278 219.304 142.361 223.837 146.664 223.837C151.062 223.837 155.834 217.038 155.834 217.038C155.834 217.038 163.599 221.027 162.196 225.469C160.699 229.911 165.564 231.543 167.155 233.084C170.803 234.353 175.482 236.892 177.54 238.886C180.908 242.15 171.365 261.459 173.797 263.907C176.324 266.355 181.376 245.141 181.376 243.147C181.376 241.968 182.499 241.878 183.902 242.784C179.879 221.027 173.517 202.17 163.693 192.651C159.857 188.753 155.179 186.396 151.623 184.401C151.53 184.401 151.53 184.311 151.53 184.311C152.278 185.399 152.839 187.484 152.839 191.11C152.839 199.632 130.104 202.533 133.472 199.269C136.84 196.005 140.583 185.852 138.805 185.852C137.027 185.852 133.94 196.549 129.168 198.725C124.303 200.991 118.596 195.008 118.596 195.008C118.596 195.008 133.753 183.948 132.256 182.498C130.759 181.047 117.566 195.824 114.011 197.275C110.362 198.725 103.719 191.835 103.719 191.835C103.719 191.835 128.794 178.781 128.045 176.605C127.297 174.338 104.748 190.475 101.287 189.387C97.7313 188.3 94.7373 181.5 94.7373 181.5C94.7373 181.5 120.186 173.16 119.157 171.165C118.221 169.171 97.8249 179.959 94.9245 179.415C92.024 178.871 93.4274 170.712 93.4274 169.352C93.4274 167.902 109.146 165.907 110.643 164.457C112.14 163.006 95.2987 167.177 94.0824 167.177C92.8661 167.177 91.5562 165.726 92.7725 163.097C93.9888 160.377 95.1115 151.493 95.1115 151.493C96.6085 151.493 102.971 146.597 104.094 145.51C105.216 144.422 109.333 153.85 110.83 153.85C112.421 153.85 106.245 145.419 106.245 143.425C106.245 141.43 110.082 139.708 113.263 139.708C116.444 139.708 121.215 160.105 122.712 160.105C124.209 160.105 117.66 139.254 118.596 138.348C119.531 137.441 122.338 135.991 128.139 136.807C133.94 137.622 130.665 161.465 132.724 163.46C134.782 165.454 132.724 138.257 132.724 137.532C132.724 136.807 140.021 138.71 142.548 141.158C145.074 143.606 140.77 166.633 142.548 168.355C144.325 170.078 145.822 146.416 145.822 143.968C145.822 141.521 148.161 141.249 154.617 149.227C156.395 151.402 156.769 153.85 156.301 156.207C166.593 160.649 164.535 176.605 160.044 180.866C157.798 183.041 155.085 183.585 152.933 183.585C162.757 189.206 168.839 193.014 175.482 207.972C175.482 202.895 176.043 192.016 178.85 189.297C181.657 186.577 175.482 188.028 175.482 185.217C175.482 182.407 175.762 171.619 177.072 170.35C178.382 169.08 181.75 178.962 183.809 176.877C185.867 174.882 177.821 168.718 177.821 167.992C177.821 167.177 182.499 152.49 183.621 152.49C184.744 152.49 183.902 158.927 187.177 160.468C190.452 162.009 185.399 151.402 185.399 148.139C185.399 144.875 188.674 144.15 192.51 140.433C196.346 136.716 200.556 130.279 200.556 130.279C200.556 130.279 197.375 141.249 192.323 150.586C187.645 159.471 186.335 192.288 186.241 196.005C186.335 196.096 186.428 196.187 186.428 196.368C186.709 215.678 186.99 232.449 187.177 247.045C187.364 247.68 187.364 248.586 187.177 249.674C187.177 249.946 187.177 250.309 187.177 250.581C187.551 252.938 187.832 255.295 188.206 257.743C189.329 254.57 189.984 252.212 189.984 252.212C189.984 252.212 190.639 252.847 191.481 253.935C191.949 251.125 193.071 248.949 194.849 248.224C194.849 248.224 195.691 249.13 197.001 250.309C197.562 231.815 198.498 215.315 200.088 205.434C200.463 203.53 200.743 201.535 201.586 199.45C200.463 199.45 198.872 199.088 196.814 198.181C189.984 195.099 198.03 172.797 199.153 177.058C200.276 181.319 206.544 188.572 207.386 186.849C208.228 185.127 201.118 178.418 201.492 173.16C201.96 167.811 209.258 164.638 209.258 164.638C209.258 164.638 211.222 182.86 213 181.954C214.871 181.047 208.977 163.369 209.538 159.471C210.1 155.572 218.52 151.765 218.52 151.765C218.52 151.765 217.491 179.959 219.643 180.05C221.701 180.231 219.175 153.215 221.608 150.314C224.04 147.413 230.777 147.051 230.777 147.051C230.777 147.051 225.912 173.885 227.877 173.704C229.935 173.523 230.496 150.586 232.274 148.048C234.052 145.51 239.853 149.861 240.975 150.314C242.098 150.858 236.578 166.27 237.139 168.174C237.701 170.078 242.004 152.762 242.472 151.674C243.034 150.496 244.718 149.77 246.308 151.946C247.899 154.031 254.542 158.292 254.542 158.292C253.887 159.652 254.916 167.449 255.197 168.808C255.571 170.168 246.215 170.712 245.466 172.163C244.718 173.613 254.261 170.893 255.852 171.619C257.442 172.344 257.068 176.605 255.665 179.597C254.261 182.588 235.829 179.778 235.174 181.138C234.519 182.498 254.074 183.857 254.355 185.127C254.635 186.396 254.542 189.478 251.267 194.645C247.992 199.813 230.496 188.118 227.97 189.387C225.444 190.566 247.992 198.453 248.554 198.725C249.115 198.997 244.343 205.071 241.256 206.612C238.168 208.063 221.795 195.733 219.643 196.821C217.398 197.909 235.642 207.791 237.607 208.697C239.572 209.604 238.73 211.87 229.374 215.043C226.847 215.95 224.789 215.406 223.105 214.137C215.246 221.842 204.112 215.134 201.96 209.513C200.837 218.126 200.182 230.092 199.714 243.6C201.679 240.336 205.796 236.529 207.761 238.433C210.38 240.971 213.187 252.122 216.275 249.221C219.269 246.32 208.79 238.705 210.006 234.172C211.222 229.73 215.339 225.831 216.836 227.373C218.333 228.823 217.959 244.053 219.924 242.15C221.889 240.246 217.023 225.197 218.427 223.837C219.83 222.477 227.034 215.95 229.748 218.488C232.368 221.027 226.567 234.988 228.157 233.537C229.654 232.087 233.49 216.494 235.549 214.499C237.607 212.505 240.975 215.043 242.94 213.049C242.94 213.049 243.314 217.4 244.437 218.398C245.466 219.395 234.239 228.551 235.736 228.551C237.233 228.551 246.402 220.301 246.402 220.301C246.402 220.301 245.653 229.095 243.689 231.089C241.63 233.084 230.964 234.716 230.964 236.438C230.964 238.161 244.811 234.262 244.811 234.262C244.811 234.262 242.098 244.416 237.233 245.685C232.368 246.954 224.789 245.957 224.789 247.68C224.789 249.402 234.332 248.314 234.332 248.314C234.332 248.314 232.087 260.825 225.818 260.825C219.549 260.825 218.801 259.737 218.801 261.913C218.801 264.089 223.76 260.372 223.76 264.27C223.76 268.168 219.175 276.055 216.836 273.698C215.526 272.429 214.684 270.706 214.216 269.256C210.942 281.223 206.825 298.719 204.112 319.752H202.147C204.954 297.903 209.258 279.863 212.626 267.715C210.474 268.984 205.047 272.157 200.556 273.245C200.837 275.693 200.65 280.679 199.153 285.03C199.059 297.359 199.153 309.326 199.153 319.661H196.252C196.252 310.777 196.252 300.804 196.252 290.288C195.41 291.285 194.381 292.192 193.165 292.736C192.697 293.008 192.136 293.189 191.668 293.28C192.323 302.346 192.884 311.23 193.258 319.57H190.639C190.358 311.502 189.984 302.799 189.422 293.824C188.861 293.915 188.393 294.005 187.925 294.005C188.112 304.521 188.3 312.862 188.487 319.57H186.616C186.522 311.955 186.428 303.252 186.335 293.915C183.809 293.733 181.75 292.827 180.534 292.283C182.967 300.079 184.183 309.961 184.838 319.57H183.06C182.686 311.683 181.844 303.796 180.347 297.178C180.16 298.719 179.598 300.623 178.569 302.98C174.827 311.23 159.015 307.694 159.015 307.694C168.652 307.694 171.458 291.92 168.558 290.651C165.658 289.382 167.248 303.796 157.705 305.972C148.161 308.148 145.261 300.804 145.261 300.804C152.652 299.354 166.032 287.569 163.506 285.121C160.979 282.673 148.629 299.173 143.67 299.173C138.712 299.173 133.191 286.39 133.191 286.39C139.366 289.835 159.295 280.769 161.167 277.596C163.038 274.514 141.425 285.846 133.472 284.486C125.519 283.036 126.081 269.619 126.081 269.619C128.607 272.066 150.313 269.8 152.559 267.624C154.804 265.448 131.133 268.712 126.548 266.536C122.057 264.361 123.461 253.119 123.461 253.119C123.461 253.119 139.928 256.473 144.138 255.385C148.349 254.298 126.829 252.303 124.958 247.589C122.993 242.875 127.765 231.996 127.765 231.996C130.01 234.172 136.934 232.359 139.834 232.087C131.975 228.46 122.712 224.2 118.783 222.568C112.608 219.667 94.5502 218.941 86.1296 221.389ZM220.204 210.964C220.672 211.054 221.046 211.236 221.421 211.417C218.707 207.609 217.398 202.261 216.743 202.623C215.433 203.258 217.304 210.329 220.204 210.964ZM199.995 252.303C203.27 255.114 207.293 258.015 208.509 256.836C210.287 255.114 202.802 251.215 200.088 248.133C200.088 249.493 199.995 250.943 199.995 252.303ZM190.732 276.962C190.826 278.05 190.919 279.137 191.013 280.316C192.697 280.135 194.943 277.324 196.814 274.967C196.814 274.333 196.814 273.789 196.814 273.154C196.627 273.154 196.533 273.154 196.346 273.064C195.878 272.882 195.41 272.52 194.943 271.976C193.539 274.061 191.855 275.693 190.732 276.962ZM155.459 160.831C155.366 160.287 155.366 159.743 155.366 159.289C153.12 164.004 148.91 167.992 149.565 168.536C150.5 169.534 156.021 164.094 155.459 160.831ZM186.148 242.059C185.961 219.304 185.867 200.629 186.054 196.459C184.183 198.453 185.399 208.425 182.499 211.145C180.815 212.777 179.037 213.049 177.727 212.233C178.289 213.774 178.943 215.315 179.598 217.038C180.066 218.579 182.779 226.466 183.902 231.089C184.651 234.444 185.399 238.07 186.148 242.059ZM179.785 274.151C181.47 274.877 184.183 269.256 186.428 263.545C186.428 261.278 186.335 258.921 186.335 256.655C186.241 256.02 186.148 255.295 186.054 254.66C183.06 262.638 177.446 273.154 179.785 274.151ZM160.699 255.023C164.909 255.023 162.664 241.878 162.289 235.713C161.354 235.985 160.324 236.257 159.389 236.529C159.389 243.237 156.863 255.023 160.699 255.023ZM141.986 232.631C143.67 235.35 144.887 244.053 147.787 244.688C150.313 245.323 147.132 237.889 145.354 234.172C144.325 233.719 143.203 233.175 141.986 232.631Z" fill="#99BEFF"/>
<path d="M170.804 346.949H214.311C224.883 343.958 231.9 338.79 231.9 332.897C231.9 327.367 225.725 322.472 216.182 319.39H168.933C159.39 322.472 153.214 327.367 153.214 332.897C153.214 338.699 160.232 343.867 170.804 346.949Z" fill="#99BEFF"/>
<path d="M4.72997 349.937C4.72997 355.467 100.163 360 217.865 360C335.566 360 431 355.558 431 349.937C431 344.407 335.566 339.965 217.865 339.965C100.163 339.965 4.72997 344.407 4.72997 349.937Z" fill="#54688B"/>
<path d="M216.931 191.103L247.058 186.842L234.427 336.153H301.418C306.751 336.153 311.148 340.324 311.148 345.582H210.008L216.931 191.103Z" fill="#4E556B"/>
<path d="M247.056 186.842C245.372 220.929 240.32 279.765 235.735 334.975C237.139 334.975 275.686 335.337 301.416 336.153C274.938 337.06 234.706 337.332 233.116 337.332C233.116 337.241 240.039 244.953 247.056 186.842Z" fill="#E3E4FF"/>
<path d="M342.228 42.0512L345.396 42.3291L343.195 65.8935L340.027 65.6156L342.228 42.0512Z" fill="#381A3F"/>
<path d="M253.512 31.8184L247.149 87.3002L233.583 89.9293L236.764 35.8979L253.512 31.8184Z" fill="#84608D"/>
<path d="M255.756 34.4474L253.51 31.8184L247.148 87.3002H249.019L255.756 34.4474Z" fill="#6E1D6B"/>
<path d="M344.266 56.4756L146.755 87.2989L128.324 231.352L329.108 222.105L344.266 56.4756Z" fill="#D5B3DB"/>
<path d="M347.914 59.3766L344.265 56.4756L329.108 222.105L335.003 222.921L347.914 59.3766Z" fill="#E3E4FF"/>
<path d="M125.235 221.653L334.16 210.14V224.191L123.177 234.617L125.235 221.653Z" fill="#F3D7F9"/>
<path d="M337.619 213.041L334.157 210.14V224.191L337.339 229.631L337.619 213.041Z" fill="#E3E4FF"/>
<path d="M123.181 234.617L128.608 238.424L337.346 229.631L334.165 224.191L123.181 234.617Z" fill="#E0750A"/>
<path d="M185.212 59.3784C185.212 59.2877 185.96 51.8539 199.62 46.0519C213.561 40.0685 241.442 55.1175 241.723 55.2082L242.939 53.0324C241.723 52.3978 213.654 37.2582 198.591 43.6948C183.34 50.2221 182.685 58.8344 182.685 59.1971L185.212 59.3784Z" fill="#653870"/>
<path d="M183.9 70.2573C181.842 68.4441 181.748 65.3618 183.619 63.3673L185.958 60.9196C187.83 58.9252 191.011 58.8345 193.069 60.6476C193.63 61.1916 194.566 61.101 195.127 60.557L195.221 60.4663C196.624 59.0158 198.87 58.9252 200.367 60.285L204.109 63.6393L188.017 80.5921L184.274 77.2378C182.777 75.878 182.684 73.7022 184.087 72.2517C184.461 71.6171 184.461 70.7105 183.9 70.2573Z" fill="#93278F"/>
<path d="M183.619 63.2744C186.145 61.28 186.613 60.3734 188.297 59.9201C189.794 59.5575 191.291 60.0107 192.133 60.6453C192.414 60.8266 193.349 62.0052 194.753 61.3706C195.501 61.0986 195.595 60.464 196.624 60.1014C199.057 59.0135 199.899 60.8267 203.922 63.5464C202.799 62.1865 201.021 60.464 200.834 60.2827C199.431 58.8322 197.747 58.4696 196.156 59.0135C195.127 59.3762 194.566 60.1014 194.472 60.192C194.191 60.3734 193.724 60.3734 193.443 60.192C190.542 57.9256 187.174 58.5602 185.396 60.9173C184.835 61.7332 184.18 62.4585 183.619 63.2744Z" fill="#E3E4FF"/>
<path d="M183.061 63.822L186.242 60.4677L182.874 57.476C182.125 56.8414 181.096 56.9321 180.441 57.5667L179.599 58.4732C178.944 59.1985 179.038 60.1957 179.693 60.8303L183.061 63.822Z" fill="#93278F"/>
<path d="M207.852 217.119L313.297 211.226L312.548 200.619L208.414 206.965L207.852 217.119Z" fill="#464A7F"/>
<path d="M312.451 209.322L322.836 210.319L337.619 74.6064L325.55 77.4168L312.451 209.322Z" fill="#464A7F"/>
<path d="M342.106 18.4357L342.598 19.9014L241.964 51.6045L241.472 50.1388L342.106 18.4357Z" fill="#172866"/>
<path d="M345.614 44.9367L345.971 46.4385L240.844 69.9048L240.487 68.403L345.614 44.9367Z" fill="#172866"/>
<path d="M353.866 31.5851L357.674 32.0322L336.164 204.012L332.356 203.565L353.866 31.5851Z" fill="#172866"/>
<path d="M332.35 28.9153L336.154 29.3955L313.09 200.915L309.286 200.435L332.35 28.9153Z" fill="#172866"/>
<path d="M298.049 206.334C297.3 216.488 305.534 225.282 316.293 225.916C327.053 226.641 336.316 218.936 337.064 208.873C337.813 198.719 329.579 189.926 318.819 189.291C308.06 188.566 298.797 196.181 298.049 206.334Z" fill="#381A3F"/>
<path d="M306.092 206.877C305.717 212.86 310.489 217.937 316.758 218.391C323.026 218.844 328.547 214.311 328.921 208.418C329.295 202.435 324.523 197.358 318.255 196.905C311.986 196.452 306.559 200.894 306.092 206.877Z" fill="#6E5175"/>
<path d="M237.792 59.3798C237.792 65.3631 239.85 70.2586 242.376 70.2586C244.903 70.2586 246.961 65.3631 246.961 59.3798C246.961 53.3964 244.903 48.501 242.376 48.501C239.85 48.501 237.792 53.3964 237.792 59.3798Z" fill="#381A3F"/>
<path d="M330.98 32.907C330.98 41.0661 337.343 47.5934 345.108 47.5934C352.874 47.5934 359.236 40.9755 359.236 32.907C359.236 24.7479 352.874 18.2206 345.108 18.2206C337.343 18.13 330.98 24.7479 330.98 32.907Z" fill="#381A3F"/>
<path d="M336.036 32.9073C336.036 38.1654 340.06 42.3356 345.112 42.3356C350.164 42.3356 354.188 38.0747 354.188 32.9073C354.188 27.6492 350.164 23.479 345.112 23.479C340.153 23.3883 336.036 27.6492 336.036 32.9073Z" fill="#6E5175"/>
<path d="M312.455 82.6797L300.853 189.473L151.341 200.987L162.288 100.902L312.455 82.6797Z" fill="#FFF7CF"/>
<path d="M103.715 99.8132C103.715 99.8132 122.709 112.596 120.744 114.409C119.434 115.587 112.978 126.194 109.984 128.733C109.704 129.005 102.873 134.353 102.312 134.353C101.844 134.353 96.7919 141.606 97.7276 141.606C98.6632 141.606 102.218 136.529 102.218 136.529C102.218 136.529 98.5696 143.328 99.6923 143.419C100.815 143.51 103.061 137.164 103.528 137.708C103.996 138.252 99.4117 145.323 101.002 145.413C102.593 145.504 103.996 140.881 104.558 141.515C105.119 142.15 105.4 142.694 105.961 142.241C106.242 142.059 106.335 142.241 107.084 140.881C108.019 139.34 110.358 136.801 111.855 135.441C113.82 133.628 129.071 118.851 131.41 113.412C133.749 107.972 103.622 69.3526 95.5756 65.0011C87.5292 60.6495 102.78 98.9066 103.715 99.8132Z" fill="#FC7575"/>
<path d="M99.1325 96.9126L116.254 114.319L126.266 99.179C126.266 99.179 105.588 65.0921 94.3608 64.6389C92.5831 64.5482 99.1325 96.9126 99.1325 96.9126Z" fill="#F7931E"/>
<path d="M109.516 107.427C107.738 89.3867 104.37 74.247 99.8787 66.9038C97.9138 65.544 95.107 63.9121 93.5165 63.8215C91.7388 63.7308 99.1302 96.9112 99.1302 96.9112L109.516 107.427Z" fill="#E27F1B"/>
<path d="M77.3277 202.164C77.3277 202.164 89.1166 325.185 92.017 338.331V346.58H115.127C115.127 346.58 113.723 343.77 111.104 343.77C108.484 343.77 101.841 340.778 100.063 338.693C98.2858 336.608 101.654 166.627 101.654 166.627H72.9304L77.3277 202.164Z" fill="#0C0C0D"/>
<path d="M96.8841 177.234L92.7673 196.997C92.7673 196.997 60.3011 303.881 61.611 341.232C61.611 341.232 64.3244 345.674 73.8678 348.303C74.4292 348.484 75.3648 351.204 75.3648 351.204L49.9157 350.116L51.3192 342.592C51.3192 342.592 52.442 215.491 52.5355 200.714C52.5355 185.937 56.6523 166.627 56.6523 166.627H98.4746L96.8841 177.234Z" fill="#33405A"/>
<path d="M105.868 139.7C105.962 103.347 100.442 67.1745 91.9277 62.551C86.8753 62.3697 85.5655 62.279 80.5131 62.0977C72.9345 61.8258 61.1457 65.452 54.7835 85.4872C48.9826 103.709 50.5732 159.282 51.4152 186.479C72.9346 186.479 88.653 185.844 109.611 185.844C109.892 179.498 105.868 151.123 105.868 139.7Z" fill="#D24307"/>
<path d="M102.216 28.4651C102.216 28.4651 100.625 27.4679 99.596 27.3773L100.157 26.4707C100.251 26.4707 102.309 27.3773 102.216 28.4651Z" fill="#2F499F"/>
<path d="M94.3614 50.4041L92.0223 68.0821C91.5545 71.7084 88.7477 74.3374 85.6602 74.0655C84.9117 73.9748 84.0696 73.8841 83.2276 73.7935C79.1108 73.0682 75.2748 69.5326 76.3039 64.7278C77.5202 58.5631 80.3271 48.319 80.4207 42.8796C80.7014 33.9952 94.5485 45.8712 94.3614 50.4041Z" fill="#FC7575"/>
<path d="M80.5099 42.8811C80.697 33.9967 94.5443 45.9634 94.4507 50.4962L93.1408 60.8311C91.7374 60.5591 88.6497 59.9245 85.9364 58.6553C82.1939 57.0235 82.1004 52.4 79.8549 51.0402C79.7613 50.9495 79.6678 50.8588 79.4807 50.7682C80.0421 47.7765 80.4163 44.9662 80.5099 42.8811Z" fill="#FD5E5A"/>
<path d="M113.543 21.666C109.333 24.0231 101.193 27.4681 98.2924 23.7511C100.819 28.012 109.801 25.4736 114.572 23.5698L113.543 21.666Z" fill="#5C2C55"/>
<path d="M100.816 33.363C100.816 33.363 105.213 30.2806 104.371 33.0003C103.529 35.8107 101.19 41.7033 98.9447 39.3463C96.8863 36.8985 100.816 33.363 100.816 33.363Z" fill="#FD5E5A"/>
<path d="M91.4604 16.8643C92.1153 17.4989 99.6938 17.2269 101.846 24.7514C104.091 32.2759 100.723 49.3194 95.8579 53.7615C90.9926 58.2037 85.566 55.212 81.5428 47.3249C77.5196 39.4378 69.5668 29.2842 75.8355 22.1223C79.2038 18.3148 91.4604 16.8643 91.4604 16.8643Z" fill="#FC7575"/>
<path d="M99.32 47.9566C99.32 47.9566 96.9809 52.8521 99.0392 55.0278C101.191 57.2036 92.5835 57.7475 89.7767 56.9316C86.9698 56.1157 83.2272 55.2998 82.198 54.3932C79.859 52.4894 80.7947 35.8086 82.2917 39.8881C83.7887 43.9677 87.4375 51.1296 89.0281 51.2202C90.6187 51.2202 92.677 51.7642 94.3611 51.7642C96.0452 51.8548 99.32 47.9566 99.32 47.9566Z" fill="#5C2C55"/>
<path d="M92.486 20.2168C93.0474 24.2057 96.9771 29.6451 106.801 24.0244C116.625 18.4037 114.941 10.8792 114.941 10.8792C114.941 10.8792 109.889 16.8625 106.895 15.5027C103.901 14.1428 106.333 6.79963 106.333 6.79963C106.333 6.79963 95.48 5.71176 93.4216 5.62111C91.3633 5.53045 89.1178 11.6951 89.1178 11.6951C89.1178 11.6951 90.6148 8.9754 79.8551 7.79686C69.0954 6.61833 74.9899 22.3019 73.5865 27.6507C72.183 32.9994 79.2938 42.6997 79.2002 45.8727C79.1067 49.0456 77.2354 50.9494 77.2354 50.9494C77.2354 50.9494 79.5744 51.4934 81.7264 46.054C83.9718 40.6146 80.4165 32.3648 80.5101 28.1946C80.6972 23.1178 83.2234 21.3047 85.4688 19.8542C87.153 18.6756 91.9247 16.2279 92.486 20.2168Z" fill="#5C2C55"/>
<path d="M81.354 33.6347C81.354 33.6347 83.8802 40.5246 82.0089 39.89C80.0441 39.3461 76.3952 35.7198 77.3308 30.915C78.36 26.1102 81.354 33.6347 81.354 33.6347Z" fill="#FC7575"/>
<path d="M81.3547 33.6317C81.3547 33.6317 79.7641 31.456 79.1091 32.1812C77.7057 33.9037 81.916 39.0711 81.916 37.7113C81.916 36.3514 81.3547 33.6317 81.3547 33.6317Z" fill="#FD5E5A"/>
<path d="M90.619 32.0932C90.619 33.1811 91.1804 34.0877 92.0224 34.0877C92.8645 34.0877 93.5195 33.2718 93.5195 32.1839C93.5195 31.096 92.9582 30.1895 92.1161 30.1895C91.274 30.1895 90.619 31.0053 90.619 32.0932Z" fill="#2F499F"/>
<path d="M99.1289 32.2729C99.1289 33.3608 99.6903 34.2674 100.532 34.2674C101.374 34.2674 102.029 33.4515 102.029 32.3636C102.029 31.2757 101.468 30.3691 100.626 30.3691C99.8774 30.3691 99.2224 31.2757 99.1289 32.2729Z" fill="#2F499F"/>
<path d="M92.2996 25.4759L92.6738 26.7451C92.6738 26.7451 90.5219 26.0198 88.9313 27.6516C88.9313 27.6516 90.5219 25.1133 92.2996 25.4759Z" fill="#2F499F"/>
<path d="M101.376 28.8301L105.96 28.9207C107.457 28.9207 108.58 30.2806 108.58 31.8217L108.487 35.176C108.487 36.7172 107.177 37.8957 105.68 37.8957L101.095 37.8051C99.5981 37.8051 98.4753 36.4452 98.4753 34.9041L98.5688 31.5498C98.6624 30.0086 99.9723 28.8301 101.376 28.8301ZM99.7852 34.9041C99.7852 35.72 100.347 36.4452 101.189 36.4452L105.773 36.5359C106.615 36.5359 107.27 35.9013 107.27 35.0854L107.364 31.7311C107.364 30.9152 106.802 30.1899 105.96 30.1899L101.376 30.0993C100.534 30.0993 99.8787 30.7339 99.8787 31.5498L99.7852 34.9041Z" fill="#0F1D5B"/>
<path d="M87.3411 28.377L92.6742 28.5582C94.3584 28.6489 95.7617 29.9181 95.7617 31.4593L95.6682 34.9042C95.6682 36.4454 94.1712 37.7146 92.487 37.7146L87.154 37.5333C85.4699 37.4426 84.0664 36.1734 84.0664 34.6323L84.1601 31.1873C84.2536 29.5555 85.657 28.377 87.3411 28.377ZM85.4699 34.6323C85.4699 35.4482 86.2184 36.1734 87.154 36.1734L92.487 36.3547C93.4227 36.3547 94.1712 35.7201 94.1712 34.9042L94.2647 31.4593C94.2647 30.6434 93.5163 29.9181 92.5807 29.9181L87.2476 29.7368C86.3119 29.7368 85.5635 30.3714 85.5635 31.1873L85.4699 34.6323Z" fill="#0F1D5B"/>
<path d="M97.9164 43.4249C97.9164 43.3342 100.068 37.9855 97.8229 29.4637C97.7293 29.0104 96.9808 29.1918 97.0743 29.6451C97.0743 29.7357 99.0392 37.1696 97.3551 42.6996C95.2031 42.337 94.4545 41.793 94.361 42.337C94.2674 42.8809 95.2031 42.6996 97.9164 43.4249Z" fill="#2F499F"/>
<path d="M95.4094 31.588L99.1504 31.6904L99.116 32.8685L95.3751 32.7661L95.4094 31.588Z" fill="#0F1D5B"/>
<path d="M97.8203 0C94.5456 0 91.2709 1.17855 89.6803 3.80759C88.2769 6.07401 88.4641 8.24975 88.4641 9.88157L88.7447 11.876L89.4932 11.7854C89.4932 11.2414 89.3061 9.60962 89.5868 7.9778C90.3353 3.8076 93.5165 1.99445 97.7268 2.35708L97.8203 0Z" fill="#5C2C55"/>
<path d="M95.1992 46.5997C95.1057 47.6876 94.5443 48.5942 93.8893 48.5942C93.2344 48.5942 92.6731 47.597 92.7666 46.5091C92.8602 45.4212 93.4216 44.5146 94.0765 44.5146C94.7315 44.5146 95.1992 45.5119 95.1992 46.5997Z" fill="#2F499F"/>
<path d="M69.192 64.8176C69.192 64.8176 34.6675 62.9138 34.8546 60.1034C34.9482 57.2931 67.6014 46.8676 69.8469 46.0517C72.5602 45.1451 72.5602 45.1451 76.9576 42.8787C76.9576 42.8787 80.3259 42.2441 81.9165 41.6095C83.5071 40.9749 82.1036 39.9777 80.4195 39.887C78.7354 39.7963 76.9577 40.159 76.2092 40.0683C75.4607 40.0683 76.9576 36.714 77.0512 35.3542C77.1447 33.9943 80.0452 30.0961 82.4778 30.1868C84.9105 30.2774 87.156 29.4615 86.5946 28.9175C86.0332 28.3736 76.677 29.0989 76.3963 29.2802C76.1156 29.4615 70.3147 38.5272 67.9757 40.4309C65.5431 42.3347 17.9198 45.5984 15.113 57.2931C12.3061 68.9878 48.1405 88.6603 55.2512 87.935C62.2684 87.3911 76.2092 65.5428 69.192 64.8176Z" fill="#FF8D8D"/>
<path d="M32.0473 77.8739L41.0293 62.1903C39.813 62.009 38.7839 61.8276 37.8483 61.5557L28.1178 75.1542C29.4276 76.0607 30.7375 76.9673 32.0473 77.8739Z" fill="#FD5E5A"/>
<path d="M38.8769 60.2861L25.9653 81.1372C25.9653 81.1372 50.4787 88.4803 55.2504 88.7523C60.022 88.9336 70.9688 75.5165 71.7173 69.9864C72.4658 64.4564 71.6238 63.7311 71.6238 63.7311L38.8769 60.2861Z" fill="#FBB03B"/>
<path d="M72.7489 66.4508C72.7489 67.448 72.5618 68.4452 72.4683 69.3518C72.0005 73.794 66.2931 80.5932 62.8313 83.7662C65.6382 80.4119 70.7842 73.522 71.0648 69.2611C71.1584 67.9919 71.3455 65.6349 71.0648 64.4563C57.8726 63.1872 45.8966 61.5553 38.8794 60.2861C53.9429 60.7394 72.1875 63.3685 72.2811 63.3685C72.4682 63.5498 72.8425 65.6349 72.7489 66.4508Z" fill="#FFE09A"/>
<path d="M103.155 133.173C102.687 133.173 96.6989 141.513 97.7281 141.513C98.7573 141.513 102.687 136.255 102.687 136.255C102.687 136.255 98.4766 143.326 99.6929 143.326C100.816 143.417 103.716 137.071 104.184 137.615C104.652 138.159 99.4122 145.23 101.003 145.23C102.593 145.321 104.184 140.879 104.839 141.513C105.4 142.148 105.494 142.51 106.055 141.967C106.336 141.695 107.271 139.519 108.207 137.978L107.552 130.453C105.307 132.266 103.435 133.173 103.155 133.173Z" fill="#FC7575"/>
<path d="M105.585 140.154C105.585 140.154 102.778 144.958 103.339 145.502C103.901 146.137 107.924 139.972 107.55 139.7C107.269 139.338 105.585 140.154 105.585 140.154Z" fill="#FC7575"/>
<path d="M31.9543 103.712C32.1414 103.712 32.235 103.621 32.3285 103.53C32.4221 103.349 32.3285 103.168 32.1413 103.077C13.5224 95.0087 9.59284 66.9958 9.59284 66.7238C9.59284 66.5425 9.4057 66.3612 9.21857 66.4518C9.03145 66.4518 8.84439 66.6332 8.93795 66.8145C8.93795 67.0864 12.9611 95.462 31.9543 103.712C31.8607 103.712 31.8607 103.712 31.9543 103.712Z" fill="#464A7F"/>
<path d="M5.85054 85.3995H5.94408C6.13121 85.3088 6.22484 85.1275 6.13128 84.9462C-2.19577 64.5485 4.16649 57.8399 4.16649 57.7492C4.35361 57.5679 4.26005 57.3866 4.16649 57.2053C3.97936 57.024 3.79215 57.1146 3.60502 57.2053C3.32434 57.4772 -3.13144 64.3671 5.38273 85.1275C5.56986 85.3088 5.66342 85.3995 5.85054 85.3995Z" fill="#464A7F"/>
<path d="M215.99 103.801L289.904 96.0049L284.384 158.83L273.25 179.137C243.872 180.316 216.739 181.403 216.926 181.403C215.99 181.403 215.99 180.044 216.926 180.044L235.451 179.318C235.545 179.137 235.077 179.59 258.748 156.745V133.355L222.165 134.897L215.242 125.74V105.252C176.039 108.062 177.91 108.334 177.817 107.156C177.723 105.886 178.004 106.884 215.99 103.801ZM216.739 125.106L222.914 133.265L235.638 132.721C237.322 113.502 236.387 112.232 237.79 112.323C239.194 112.414 238.164 113.502 237.042 132.63L260.245 131.633V157.107L237.603 179.046L272.408 177.777L282.981 158.558L288.314 97.6367L216.739 105.161V125.106Z" fill="#6F81A6"/>
</svg>
