<svg width="415" height="353" viewBox="0 0 415 353" fill="none" xmlns="http://www.w3.org/2000/svg">
<path d="M366.482 313.238L377.07 249.805L351.945 231.368L353.36 148.233L123.919 96.8137L124.607 151.752L93.7196 157.053L93.2108 57.5641L54.3772 62.6361L2.11777 107.265L22.6912 337.688L392.829 337.72L399.003 327.243L366.482 313.238Z" fill="#D0D1FE"/>
<path d="M203.826 30.137L147.423 70.8869L149.317 222.112L245.276 220.91L243.345 66.7377L203.826 30.137Z" fill="#A2D2ED"/>
<path d="M245.16 211.74L149.201 212.942L149.441 232.101L245.4 230.899L245.16 211.74Z" fill="#C0E6FF"/>
<path d="M148.733 175.525L148.921 190.508L204.093 182.284L244.843 186.359L244.635 169.738L205.168 163.518L148.733 175.525Z" fill="#C0E6FF"/>
<path d="M147.885 107.732L148.148 128.774L203.785 85.7407L245.278 109.951L245.062 92.6757L203.168 69.125L147.885 107.732Z" fill="#E3E3FE"/>
<path d="M202.749 3.04566L147.123 46.9795L147.553 81.2855L202.312 40.0648L243.368 68.6212L242.894 30.7946L202.749 3.04566Z" fill="#E3E3FE"/>
<g opacity="0.25">
<path d="M147.256 57.2954L157.262 38.9089L148.019 46.3128L147.138 47.8797L147.256 57.2954Z" fill="#C0E6FF"/>
<path d="M171.615 27.6746L147.436 71.706L147.556 81.2854L151.855 78.038L185.479 16.6098L171.615 27.6746Z" fill="#C0E6FF"/>
</g>
<path d="M68.5728 234.915L69.7252 326.944L249.852 324.688L247.922 170.516L208.402 133.915L68.5728 234.915Z" fill="#A2D2ED"/>
<path d="M56.5037 225.976L207.242 106.742L247.47 134.571L247.944 172.398L206.888 143.842L79.8469 239.441L80.0027 251.886L207.661 172.903L248.236 195.733L248.429 211.125L208.278 189.518L80.133 262.284L80.7595 273.086L209.13 218.251L248.72 234.378L248.933 251.408L209.39 239.047L80.8795 282.665L80.539 294.707L209.744 267.294L249.21 273.515L249.418 290.136L208.668 286.06L80.6692 305.105L80.8261 317.632L249.736 315.517L249.975 334.594L57.5666 337.004L56.5037 225.976Z" fill="#E3E3FE"/>
<g opacity="0.47">
<path d="M131.102 166.983L117.237 177.966L86.0927 234.695L99.5601 224.618L131.102 166.983Z" fill="#C0E6FF"/>
<path d="M57.2049 301.715L86.9083 247.625L80.0011 251.887L79.9263 245.91L57.1104 287.632L57.2049 301.715Z" fill="#C0E6FF"/>
<path d="M129.169 202.301L161.833 142.686L152.509 150.091L120.164 209.047L129.169 202.301Z" fill="#C0E6FF"/>
<path d="M103.55 249.053L113.236 231.326L105.273 236.257L95.9055 253.325L103.55 249.053Z" fill="#C0E6FF"/>
<path d="M57.5151 332.911L80.6522 290.695L80.8792 282.667L86.0159 280.883L93.3036 267.771L86.379 270.642L57.479 323.495L57.5151 332.911Z" fill="#C0E6FF"/>
<path d="M156.348 181.817L190.053 120.388L176.107 131.454L142.963 191.975L156.348 181.817Z" fill="#C0E6FF"/>
<path d="M71.3199 336.831L81.8887 317.619L80.8243 317.632L80.6715 305.433L63.378 336.931L71.3199 336.831Z" fill="#C0E6FF"/>
<path d="M89.4978 303.85L96.3024 291.399L87.3186 293.313L80.8332 305.105L89.4978 303.85Z" fill="#C0E6FF"/>
<path d="M105.669 274.25L114.156 258.83L103.812 263.218L95.9651 277.483L105.669 274.25Z" fill="#C0E6FF"/>
<path d="M126.724 235.826L137.372 216.367L125.427 223.804L115.259 242.357L126.724 235.826Z" fill="#C0E6FF"/>
<path d="M84.9653 203.511L56.7827 254.798L56.9016 264.296L94.2088 196.189L84.9653 203.511Z" fill="#C0E6FF"/>
</g>
<path d="M251.195 170.475L251.591 202.079L291.839 224.913L291.519 199.368L251.195 170.475Z" fill="#C0E6FF"/>
<path d="M251.678 209.037L252.059 239.495L292.224 255.697L291.897 229.579L251.678 209.037Z" fill="#C0E6FF"/>
<path d="M252.176 248.666L252.548 278.387L292.6 285.583L292.309 262.33L252.176 248.666Z" fill="#C0E6FF"/>
<path d="M252.672 288.293L253.051 318.588L293.013 318.578L292.701 293.688L252.672 288.293Z" fill="#C0E6FF"/>
<path d="M253.111 323.5L253.25 334.553L292.223 334.065L293.067 323L253.111 323.5Z" fill="#C0E6FF"/>
<path d="M54.3772 62.6362L55.9075 204.448L93.9432 174.902L93.2109 57.5641L54.3772 62.6362Z" fill="#E3E3FE"/>
<path d="M248.346 171.983C248.346 171.983 244.803 170.226 242.759 170.497C240.143 170.857 232.831 168.983 231.424 167.773C230.018 166.644 225.398 163.918 225.398 163.918L219 169.648C219 169.648 241.762 182.465 247.578 182.638C249.545 182.695 241.639 179.191 242.043 178.695C242.446 178.198 250.541 183.829 251.177 182.265C251.813 180.702 242.773 178.194 242.678 177.131C242.582 175.986 251.993 182.009 253.122 180.685C254.252 179.361 242.987 175.653 242.987 175.653C242.987 175.653 243.386 174.829 246.591 175.69C249.794 176.469 252.755 177.496 252.661 176.515C252.567 175.533 243.869 174.168 243.769 172.695C243.767 172.531 248.115 173.132 248.346 171.983Z" fill="#FD5E5A"/>
<path d="M413.971 332.46C414.073 340.566 329.383 332.7 221.12 345.275C105.988 358.672 19.5126 345.506 19.4111 337.401C19.3096 329.295 107.571 321.557 216.548 320.192C325.524 318.827 413.87 324.354 413.971 332.46Z" fill="#54688B"/>
<path d="M188.701 91.0051C188.701 91.0051 196.873 102.695 198.113 116.682C198.677 122.489 201.916 132.685 207.379 143.835C210.153 149.614 232.301 165.715 232.301 165.715L224.595 178.095L199.71 159.244L186.337 137.629L188.701 91.0051Z" fill="#341102"/>
<path d="M180.844 215.656L166.055 335.972L173.734 334.484L186.183 269.226C186.183 269.226 194.187 208.692 193.914 186.913L180.844 215.656Z" fill="#432C47"/>
<path d="M140.026 343.505L155.091 343.316L145.599 337.294L146.602 332.45C144.474 332.476 143.92 334.039 141.791 334.066C141.098 337.596 140.026 343.505 140.026 343.505Z" fill="#432C47"/>
<path d="M167.034 342.347L181.772 342.163L172.279 336.14L173.283 331.296C171.154 331.323 170.6 332.885 168.472 332.912C167.861 336.441 167.034 342.347 167.034 342.347Z" fill="#432C47"/>
<path d="M193.201 169.233C177.159 169.843 170.566 179.589 155.72 184.197L156.35 188.774L156.249 265.669C156.249 265.669 141.535 320.064 138.648 338.034C138.648 338.034 147.483 337.35 146.91 337.357L171.978 272.76L182.951 213.909L192.245 190.945L193.201 169.233Z" fill="#653870"/>
<path d="M183.034 213.91L169.758 271.971L146.993 337.358L172.061 272.761L183.034 213.91Z" fill="#70497A"/>
<path d="M167.874 82.3385L167.413 91.2702L188.671 88.6292L183.599 82.551L167.874 82.3385Z" fill="#375866"/>
<path d="M196.411 150.934C196.028 120.394 190.9 90.1592 184.22 86.3941C184.22 86.3941 176.435 85.9183 172.503 85.8857C166.524 85.7968 161.976 88.8017 157.275 105.73C154.297 116.412 151.587 141.996 152.195 164.344C152.483 174.249 151.043 183.52 151.376 190.477C168.16 190.266 180.434 189.539 196.728 189.335C196.907 184.01 196.531 160.513 196.411 150.934Z" fill="#D24307"/>
<path opacity="0.57" d="M196.411 150.934C190.513 150.762 184.696 150.508 184.441 149.774C182.159 144.07 168.249 105.757 161.548 93.803C160.11 96.6871 158.685 100.554 157.194 105.731C155.783 110.744 154.493 118.949 153.468 128.625C158.229 142.65 167.017 164.323 170.005 167.479C172.328 169.906 185.569 167.939 196.438 166.165C196.449 160.515 196.455 154.455 196.411 150.934Z" fill="#9E3205"/>
<path d="M176.568 122.601C176.654 122.927 166.212 86.8633 166.212 86.8633C166.212 86.8633 162.867 87.806 158.475 90.2357C154.084 92.6655 152.343 110.621 152.343 110.621C152.343 110.621 150.188 147.744 150.224 150.691C150.244 152.247 147.348 176.031 144.67 197.601L181.058 199.93C180.109 169.888 176.568 122.601 176.568 122.601Z" fill="#692204"/>
<path opacity="0.14" d="M177.346 132.666C170.505 116.047 161.062 94.3824 158.615 95.1501C157.31 95.5758 155.614 97.4805 154.011 100.203C152.847 105.376 152.339 110.542 152.339 110.542C152.339 110.542 151.998 116.033 151.594 122.998C155.527 136.297 166.267 163.431 169.753 167.155C170.915 168.368 174.684 168.567 179.513 168.343C178.767 154.595 177.946 141.339 177.346 132.666Z" fill="#75260B"/>
<path d="M184.223 86.3945C184.223 86.3945 193.279 90.2937 196.402 117.36C199.525 144.426 203.985 199.727 203.985 199.727L191.458 199.884C191.458 199.884 189.077 120.891 189.008 115.405C188.94 110.001 184.223 86.3945 184.223 86.3945Z" fill="#692204"/>
<path d="M183.6 82.5518L189.082 121.462L190.558 101.954L188.811 99.8469L188.671 88.6299L183.6 82.5518Z" fill="#874E36"/>
<path d="M162.432 125.073C162.596 124.989 162.596 124.989 162.432 125.073V125.073Z" fill="#FC7575"/>
<path d="M176.566 122.601L167.873 82.3382L159.439 88.9949L167.063 102.739L166.545 107.085L176.566 122.601Z" fill="#874E36"/>
<path d="M180.223 54.6697L163.124 62.4995L160.738 61.6286L161.103 58.0209L167.258 52.6211L182.899 46.0379L191.4 44.8669L191.739 45.7634L190.62 47.9065L180.223 54.6697Z" fill="#3F1817"/>
<path d="M172.614 74.9918C172.283 74.7503 167.556 63.427 167.556 63.427C167.556 63.427 164.42 54.9498 166.366 53.4514C168.313 51.9531 172.917 46.9002 177.01 46.7671C181.103 46.6339 183.902 47.8272 184.232 48.0687C184.645 48.3092 187.321 52.7796 187.321 52.7796C187.321 52.7796 186.075 51.3212 185.489 56.897C184.986 62.4717 172.614 74.9918 172.614 74.9918Z" fill="#381A3F"/>
<path d="M183.004 74.2895C182.532 75.7695 182.907 86.1646 182.53 88.7079C182.153 91.3331 170.494 95.4097 170.132 86.079C169.768 76.6663 170.531 65.6836 170.531 65.6836L183.004 74.2895Z" fill="#FC7575"/>
<path d="M183.005 74.2886L178.874 71.3924L170.531 65.6009C170.531 65.6009 170.532 65.6827 170.534 65.8465C170.538 66.174 170.464 66.8301 170.395 67.8136C170.397 67.9773 170.4 68.223 170.402 68.3867C170.328 69.0427 170.338 69.8615 170.267 70.6813C170.268 70.7632 170.268 70.7632 170.269 70.845C170.271 71.0088 170.274 71.2544 170.277 71.5001C170.278 71.5819 170.28 71.7457 170.281 71.8276C170.282 71.9094 170.282 71.9094 170.283 71.9913C170.283 71.9913 170.283 71.9913 170.284 72.0732C170.285 72.155 170.286 72.2369 170.287 72.3188C171.905 77.2938 177.787 82.7066 182.79 83.2991C182.786 82.9716 182.781 82.5622 182.858 82.2337C182.735 78.8778 182.688 75.1934 183.005 74.2886Z" fill="#FD5E5A"/>
<path d="M169.933 57.0914C168.506 60.8761 168.511 67.7547 172.178 72.8678C175.845 77.9809 180.873 80.6202 184.361 77.9561C187.849 75.292 188.707 58.8216 186.035 54.6787C183.444 50.5349 172.154 51.3314 169.933 57.0914Z" fill="#FC7575"/>
<path d="M170.131 72.8942C170.131 72.8942 169.244 67.5007 167.181 66.2163C165.118 64.9319 164.125 64.1254 163.774 62.2464C163.341 60.3684 158.788 56.4947 159.814 53.3701C160.921 50.2445 163.965 51.3528 166.681 45.9141C169.315 40.4765 172.307 37.4091 178.636 39.2952C185.047 41.1803 185.997 45.099 185.997 45.099C185.997 45.099 188.774 44.5729 190.536 47.9083C192.297 51.2437 191.094 53.2241 189.967 54.7941C189.967 54.7941 190.157 50.3697 188.604 50.6348C187.053 50.9818 188.67 55.8749 188.67 55.8749C188.67 55.8749 186.354 54.0204 183.862 51.1855C181.37 48.3506 182.067 51.6993 182.768 55.3756C183.551 59.0507 178.104 55.6796 175.614 53.0085C173.207 50.4182 169.799 52.9175 168.536 56.7002C167.519 60.4798 173.078 66.3062 170.131 72.8942Z" fill="#653870"/>
<path d="M171.234 62.971C171.234 62.971 168.975 59.1505 167.767 60.8034C166.642 62.4553 167.605 67.4384 170.144 67.4885C172.601 67.5396 171.234 62.971 171.234 62.971Z" fill="#FC7575"/>
<path d="M169.929 63.3153C169.929 63.3153 169.984 61.1036 168.765 61.8559C167.546 62.6082 168.819 66.1953 169.964 66.0991C171.108 65.921 169.929 63.3153 169.929 63.3153Z" fill="#FD5E5A"/>
<path d="M182.689 62.0907C183.111 63.0681 183.452 64.1283 183.63 65.2726C183.987 67.6429 183.672 68.6295 183.674 68.7932C183.427 68.7144 182.69 68.6418 181.704 68.4085C182.359 68.4003 182.932 68.3931 183.587 68.3849L183.344 68.5517C183.399 66.4219 182.963 64.2982 182.689 62.0907Z" fill="#172866"/>
<path d="M179.666 62.7021C179.838 63.3551 179.519 64.0141 179.028 64.1022C178.538 64.1902 178.042 63.787 177.869 63.0522C177.697 62.3992 178.016 61.7401 178.506 61.652C178.996 61.564 179.494 62.0491 179.666 62.7021Z" fill="#2F499F"/>
<path d="M186.367 61.6347C186.539 62.2876 186.22 62.9468 185.73 63.0348C185.239 63.1228 184.743 62.7196 184.57 61.9847C184.398 61.3318 184.717 60.6727 185.208 60.5847C185.698 60.4966 186.277 60.9807 186.367 61.6347Z" fill="#2F499F"/>
<path d="M175.798 61.0306C175.798 61.0306 176.84 59.216 178.555 58.867C180.271 58.5179 179.797 59.916 179.389 60.003C178.98 60.09 175.712 60.7041 175.798 61.0306Z" fill="#172866"/>
<path d="M184.029 57.9799C184.029 57.9799 186.083 58.5274 186.505 59.5048C186.505 59.5048 184.374 59.3677 183.958 58.8815C183.46 58.3146 184.029 57.9799 184.029 57.9799Z" fill="#172866"/>
<path d="M177.4 71.3296C177.4 71.3296 182.665 73.229 185.507 71.31C185.507 71.31 184.721 73.9402 183.99 74.4407C182.529 75.4417 178.672 74.753 177.4 71.3296Z" fill="white"/>
<path d="M165.698 39.2125C165.782 39.3752 170.26 50.3741 170.258 50.2104C174.741 48.5165 181.022 46.5544 185.592 45.3507C184.832 43.4768 183.566 40.4627 181.669 39.4219C179.113 37.98 174.662 35.6609 171.149 36.36C168.209 36.97 166.998 38.3773 165.698 39.2125Z" fill="#F2B90C"/>
<path d="M166.186 38.7955C166.27 38.9582 170.915 50.2007 170.912 50.0369C175.64 48.2581 184.118 45.2039 188.933 43.9152C188.173 42.0413 186.922 40.2554 185.594 38.7981C183.851 36.9365 181.135 35.9059 178.754 35.3625C176.454 34.8181 174.082 35.0116 171.799 35.7772C170.004 36.3729 168.297 37.3769 166.755 38.4608C166.348 38.6296 166.186 38.7955 166.186 38.7955Z" fill="#F2B90C"/>
<path d="M163.417 40.1397L168.874 50.8807C169.038 50.8787 174.821 48.4315 183.308 46.0323C182.453 43.1769 181.431 39.9961 178.869 38.1447C176.472 36.3732 173.107 35.7602 170.25 36.533C168.945 36.8769 167.725 37.5473 166.67 38.3794C165.53 38.885 164.31 39.5553 163.417 40.1397Z" fill="#B65F2E"/>
<path d="M159.792 58.0382C161.523 52.4481 174.74 48.5157 180.616 46.8862C180.269 45.3347 179.483 41.4139 177.99 39.9586C172.353 34.4607 158.652 38.9724 157.717 49.3021C157.58 51.4329 158.943 55.6741 159.792 58.0382Z" fill="#F7931E"/>
<path d="M159.79 58.038C161.358 52.4499 173.761 48.9372 179.553 47.145C182.734 46.1225 192.104 42.402 192.875 45.0947C193.133 46.0741 192.404 46.7384 190.699 47.9062C190.448 47.4999 192.63 45.1796 188.792 46.0466C181.688 47.6096 171.305 48.9679 162.33 58.1699C160.471 60.0767 161.965 61.6957 163.284 62.4162C160.257 62.6179 159.16 60.0112 159.79 58.038Z" fill="#B96E16"/>
<path d="M159.544 57.9595C161.572 49.909 188.979 41.295 193.016 43.2917C194.746 44.0889 193.626 46.232 190.619 47.9893C191.916 46.9904 192.319 46.4122 192.477 46.0007C193.971 41.0687 168.785 50.4738 163.104 54.5574C161.806 55.4745 160.592 56.6361 160.037 58.1171C160.039 58.2808 159.641 59.1866 159.983 60.3287C160.156 61.0636 160.574 61.7135 161.234 62.1146C158.768 61.4085 159.544 57.9595 159.544 57.9595Z" fill="#F8E000"/>
<path d="M165.391 191.283L161.297 191.334C157.531 191.382 154.381 188.309 154.334 184.543L154.156 170.378L172.005 170.155L172.183 184.319C172.231 188.168 169.239 191.235 165.391 191.283Z" fill="#4F1A03"/>
<path d="M313.256 189.268C312.427 188.46 278.456 196.091 278.456 196.091L285.392 141.794L291.861 109.121L301.229 85.5019C301.229 85.5019 314.28 81.4078 315.033 82.7086L319.895 124.411L313.256 189.268Z" fill="#26253A"/>
<path d="M326.483 323.401L327.535 328.956C327.535 328.956 325.023 337.586 321.06 341.566C317.099 345.629 308.505 345.982 308.462 342.543C308.42 339.186 317.212 328.512 317.161 324.419C317.275 320.486 326.483 323.401 326.483 323.401Z" fill="#4C5063"/>
<path d="M299.394 324.803L301.08 335.182C301.08 335.182 294.939 335.258 290.681 335.312C286.424 335.365 274.716 335.512 274.716 335.512C274.716 335.512 275.502 332.963 283.179 331.311C290.774 329.66 291.233 327.034 291.233 327.034L290.576 320.327L297.523 319.258L299.394 324.803Z" fill="#4C5063"/>
<path d="M308.88 206.028L294.09 260.833L300.563 326.59L290.575 326.715L275.948 257.293L288.704 177.374L308.88 206.028Z" fill="#464F7C"/>
<path d="M288.677 175.247L298.317 206.162C298.317 206.162 313.062 252.326 315.691 279.153C318.32 305.98 316.257 324.349 316.257 324.349L328.973 326.237C328.973 326.237 335.563 270.47 332.626 251.754C329.691 233.12 332.396 187.556 332.396 187.556L327.076 174.684L288.676 175.165L288.677 175.247Z" fill="#5D69A5"/>
<path d="M325.924 89.1244C325.924 89.1244 309.521 80.5677 299.01 91.3449C288.499 102.122 288.056 132.099 288.056 132.099L288.49 166.732L287.127 182.145L326.777 176.898L320.793 124.073L325.924 89.1244Z" fill="#B73E6B"/>
<path d="M292.587 140.885L317.931 85.2926L334.787 90.8137L329.513 140.422L341.179 195.797C341.179 195.797 298.476 192.647 293.301 197.952L292.587 140.885V140.885Z" fill="#7D87B7"/>
<path opacity="0.75" d="M329.513 140.423L331.27 123.777C324.27 133.691 309.671 144.929 305.145 149.735C303.448 151.558 298.564 153.912 292.779 156.196L292.997 173.635C304.497 169.888 315.913 166.06 318.435 164.718C320.795 163.542 326.12 157.17 331.252 148.508L329.513 140.423Z" fill="#5E6589"/>
<path d="M299.091 91.3415C299.091 91.3415 289.814 122.166 289.932 131.582C290.05 140.997 283.125 196.113 283.125 196.113L278.54 196.171L284.119 131.654L291.61 102.081L299.091 91.3415Z" fill="#7D87B7"/>
<path d="M301.312 85.5818L289.24 141.745L291.527 102L294.031 99.2665L292.072 99.7823L297.011 88.7474L301.312 85.5818Z" fill="#979FC5"/>
<path d="M233.093 176.515C239.881 175.775 242.99 175.573 243.065 174.998C242.567 174.513 241.013 174.615 236.266 174.838C233.484 175.036 228.895 174.766 228.235 174.365C227.241 173.477 229.776 173.199 231.168 173.182C231.332 173.18 245.663 173.246 246.291 171.109C246.92 168.972 242.909 169.104 240.454 169.217C237.998 169.33 236.338 167.549 237.151 167.047C238.207 166.379 241.097 168.308 245.104 167.848C248.621 167.477 253.695 167.25 255.906 167.222L258.21 168.176L264.413 166.46L265.392 172.753L260.834 174.94C257.014 177.28 251.322 180.463 247.41 181.986C243.254 183.594 239.577 184.214 237.694 184.237C237.202 184.243 237.113 183.671 237.521 183.502C238.58 183.08 240.295 182.731 241.437 182.389C245.192 181.441 246.326 180.444 246.398 179.624C245.738 179.223 244.267 179.487 239.045 180.945C236.678 181.629 233.332 182.49 232.758 182.416C230.288 181.382 235.758 180.085 238.208 179.563C240.74 179.04 243.521 178.76 243.589 177.612C243.584 177.203 240.229 177.409 236.061 178.116C221.024 180.515 225.651 177.264 233.093 176.515Z" fill="#FC7575"/>
<path d="M334.706 90.8956C334.706 90.8956 337.49 90.8607 339.987 107.207C343.106 127.395 321.607 156.571 316.318 159.257C311.028 161.862 265.424 175.617 265.424 175.617L261.883 160.922C261.883 160.922 298.28 150.885 303.534 145.414C308.87 139.943 323.095 118.392 326.162 108.281C328.758 99.8141 334.706 90.8956 334.706 90.8956Z" fill="#979FC5"/>
<path d="M316.633 53.5369C315.487 53.5513 314.011 53.406 312.454 53.3436C308.93 53.142 305.571 53.0203 302.481 54.6968C303.984 57.0528 302.224 60.3503 301.849 63.1392C306.364 63.9835 311.861 64.8154 316.179 63.0417C317.219 61.0633 318.241 57.6931 318.533 54.8233C318.035 54.3382 317.375 53.9371 316.633 53.5369Z" fill="#220D58"/>
<path d="M308.118 40.7028C308.12 40.8665 306.952 52.1818 306.951 52.0999C302.361 51.748 296.055 51.7451 291.552 51.8014C291.773 49.8333 292.063 46.7998 293.6 45.3066C295.54 43.317 299.019 39.9159 302.454 39.6273C305.234 39.2649 306.72 40.229 308.118 40.7028Z" fill="#F2B90C"/>
<path d="M307.625 40.4637C307.627 40.6274 306.38 52.1894 306.379 52.1075C301.543 51.7586 292.939 51.2931 288.109 51.4355C288.331 49.5493 288.96 47.4942 289.839 45.7635C290.877 43.6214 293.148 41.8733 295.181 40.7014C297.132 39.6124 299.419 39.0924 301.63 39.1466C303.433 39.2059 305.24 39.6746 306.967 40.2262C307.378 40.3849 307.625 40.4637 307.625 40.4637Z" fill="#F2B90C"/>
<path d="M310.494 40.9188L308.425 52.2454C308.262 52.2474 302.276 51.6673 293.843 51.7729C293.807 48.9072 293.931 45.712 295.784 43.3141C297.558 41.0809 300.405 39.5712 303.271 39.5353C304.581 39.5189 305.895 39.83 307.046 40.225C308.194 40.2925 309.508 40.6036 310.494 40.9188Z" fill="#B65F2E"/>
<path d="M318.714 56.3757C315.626 51.7467 302.36 51.7491 296.465 51.8229C296.365 50.3502 295.989 46.5061 296.949 44.6925C300.634 38.0953 314.478 38.4951 318.114 47.703C318.959 49.7397 318.848 53.9993 318.714 56.3757Z" fill="#F7931E"/>
<path d="M311.69 44.4273C311.608 44.4283 311.608 44.4283 311.69 44.4273L309.555 43.9627C309.473 43.9637 309.39 43.8828 309.471 43.7999C309.47 43.7181 309.551 43.6352 309.634 43.716L311.687 44.1816C311.769 44.1806 311.851 44.2615 311.771 44.3444L311.69 44.4273Z" fill="#591914"/>
<path d="M311.458 45.5749L309.569 45.1072C309.487 45.1082 309.404 45.0274 309.485 44.9445C309.484 44.8626 309.565 44.7797 309.647 44.8605L311.537 45.3282C311.618 45.3272 311.701 45.4081 311.621 45.491C311.622 45.5728 311.54 45.5739 311.458 45.5749Z" fill="#591914"/>
<path d="M316.13 46.0096L314.155 45.2973C314.073 45.2984 314.072 45.2165 314.071 45.1346C314.07 45.0527 314.152 45.0517 314.234 45.0507L316.126 45.764C316.208 45.763 316.209 45.8448 316.21 45.9267C316.293 46.0076 316.211 46.0086 316.13 46.0096Z" fill="#591914"/>
<path d="M316.14 46.9883L314.167 46.3579C314.085 46.3589 314.084 46.277 314.083 46.1952C314.082 46.1133 314.164 46.1123 314.246 46.1112L316.137 46.7427C316.219 46.7416 316.22 46.8235 316.221 46.9054C316.303 46.9044 316.222 46.9873 316.14 46.9883Z" fill="#591914"/>
<path d="M313.418 45.1408C313.421 45.3865 313.259 45.5523 313.013 45.5553C312.768 45.5584 312.602 45.3967 312.599 45.1511C312.596 44.9055 312.758 44.7396 313.003 44.7366C313.249 44.7335 313.415 44.8952 313.418 45.1408Z" fill="#591914"/>
<path d="M290.363 54.8462C289.954 54.8513 289.549 55.1839 289.389 55.5135C289.072 56.3364 288.837 57.1582 288.682 57.8971C287.684 63.2324 286.482 71.8458 286.482 71.8458L288.857 71.8979C288.857 71.8979 290.801 76.705 290.759 79.8992C290.717 83.0934 295.77 81.1467 298.718 81.1916C301.667 81.2366 308.188 78.8621 310.777 69.74C311.72 66.6164 312.898 62.5891 313.095 58.7378C309.81 57.9601 306.593 56.117 303.31 55.503C298.958 54.5748 294.622 54.8748 290.363 54.8462Z" fill="#FC7575"/>
<path d="M316.596 90.0587C316.596 90.0587 299.548 95.4312 300.357 94.6022C301.166 93.855 299.877 82.4068 299.503 78.7264C300.138 77.1626 304.988 65.5555 304.67 66.2965L305.705 63.9088L316.596 90.0587Z" fill="#FC7575"/>
<path d="M303.064 55.4268C303.349 58.535 300.872 63.4794 302.294 65.8363L304.921 66.3767C304.921 66.3767 305.475 64.8138 306.539 64.8005C307.604 64.7872 307.786 72.81 309.506 72.8703C311.227 72.9307 314.662 66.0909 316.261 62.9591C316.42 62.6296 316.58 62.3 316.82 61.8057C317.297 60.6533 316.534 58.6156 315.381 58.1387C311.757 56.4644 308.312 56.0162 303.064 55.4268Z" fill="#2D1175"/>
<path d="M312.666 57.1074C312.913 57.1862 313.159 57.265 313.406 57.3438C313.159 57.265 312.913 57.1862 312.666 57.1074Z" fill="#2D1175"/>
<path d="M315.381 58.2188C315.546 58.2986 315.629 58.3794 315.793 58.4592C315.629 58.3794 315.464 58.2996 315.381 58.2188Z" fill="#2D1175"/>
<path d="M313.98 57.5801C314.392 57.7387 314.803 57.8973 315.216 58.1378C314.804 57.9792 314.392 57.7387 313.98 57.5801Z" fill="#2D1175"/>
<path d="M316.461 59.5171C316.462 59.5992 316.545 59.6803 316.545 59.6803C316.544 59.5982 316.544 59.5982 316.461 59.5171Z" fill="#2D1175"/>
<path d="M316.207 59.0269C316.29 59.108 316.291 59.1901 316.375 59.2712C316.291 59.1901 316.208 59.109 316.207 59.0269Z" fill="#2D1175"/>
<path d="M315.879 58.6221C315.962 58.7032 316.045 58.7843 316.128 58.8654C315.962 58.7032 315.879 58.6221 315.879 58.6221Z" fill="#2D1175"/>
<path d="M305.029 55.645C305.275 55.6419 305.44 55.7218 305.685 55.7187C305.44 55.7218 305.275 55.6419 305.029 55.645Z" fill="#2D1175"/>
<path d="M311.266 56.7153C311.512 56.7941 311.677 56.874 311.923 56.8709C311.677 56.874 311.512 56.7941 311.266 56.7153Z" fill="#2D1175"/>
<path d="M306.752 55.8696C306.998 55.8666 307.244 55.9453 307.408 55.9433C307.244 55.9453 306.998 55.8666 306.752 55.8696Z" fill="#2D1175"/>
<path d="M309.871 56.4038C310.118 56.4826 310.282 56.4806 310.528 56.5594C310.282 56.4806 310.117 56.4007 309.871 56.4038Z" fill="#2D1175"/>
<path d="M308.393 56.0952C308.638 56.0921 308.803 56.172 309.05 56.2508C308.803 56.172 308.557 56.175 308.393 56.0952Z" fill="#2D1175"/>
<path d="M303.228 55.4223C299.783 54.8922 298.388 54.7459 290.365 54.8464C289.546 54.8566 289.312 55.7603 289.073 56.3365C291.941 56.4644 297.517 57.0497 302.931 57.8008C303.083 56.8981 303.228 55.4223 303.228 55.4223Z" fill="#FD5E5A"/>
<path d="M316.713 60.0029C316.714 60.0851 316.714 60.0851 316.797 60.1662C316.714 60.0851 316.714 60.0851 316.713 60.0029Z" fill="#2D1175"/>
<path d="M305.033 55.6479C304.459 55.5732 303.885 55.4985 303.229 55.4248C303.885 55.4985 304.459 55.5732 305.033 55.6479Z" fill="#2D1175"/>
<path d="M308.969 56.252C309.297 56.3297 309.543 56.3266 309.79 56.4054C309.625 56.3256 309.296 56.2479 308.969 56.252Z" fill="#2D1175"/>
<path d="M316.547 59.6792C316.63 59.7603 316.632 59.9246 316.633 60.0067C316.632 59.9246 316.631 59.8424 316.547 59.6792Z" fill="#2D1175"/>
<path d="M316.816 61.5598C316.814 61.396 316.812 61.3141 316.892 61.1494C316.893 61.2312 316.895 61.395 316.816 61.5598Z" fill="#2D1175"/>
<path d="M307.408 55.9453C307.737 56.0231 308.064 56.019 308.311 56.0978C308.065 56.1009 307.737 56.0231 307.408 55.9453Z" fill="#2D1175"/>
<path d="M305.688 55.7212C306.016 55.799 306.425 55.7939 306.754 55.8716C306.425 55.7939 306.016 55.799 305.688 55.7212Z" fill="#2D1175"/>
<path d="M310.527 56.562C310.774 56.6408 311.103 56.7186 311.348 56.7155C311.02 56.6377 310.774 56.6408 310.527 56.562Z" fill="#2D1175"/>
<path d="M315.382 58.2208C315.382 58.2208 315.3 58.2218 315.299 58.1396C315.299 58.1396 315.3 58.2218 315.382 58.2208Z" fill="#2D1175"/>
<path d="M315.713 58.4609C315.795 58.4599 315.796 58.5421 315.797 58.6242C315.796 58.5421 315.795 58.4599 315.713 58.4609Z" fill="#2D1175"/>
<path d="M316.715 60.1689C316.717 60.3327 316.8 60.4135 316.802 60.5773C316.8 60.4135 316.799 60.3317 316.715 60.1689Z" fill="#2D1175"/>
<path d="M316.379 59.271C316.462 59.3521 316.463 59.4342 316.546 59.5153C316.463 59.4342 316.38 59.3531 316.379 59.271Z" fill="#2D1175"/>
<path d="M316.041 58.7827C316.124 58.8638 316.125 58.946 316.207 58.9449C316.125 58.946 316.124 58.8638 316.041 58.7827Z" fill="#2D1175"/>
<path d="M311.924 56.8706C312.17 56.9494 312.417 57.0282 312.664 57.107C312.417 57.0282 312.17 56.9494 311.924 56.8706Z" fill="#2D1175"/>
<path d="M316.805 60.6572C316.807 60.821 316.808 60.9029 316.81 61.0666C316.89 60.9018 316.889 60.82 316.805 60.6572Z" fill="#2D1175"/>
<path d="M313.404 57.4243C313.569 57.5041 313.816 57.5829 313.98 57.6628C313.815 57.5011 313.568 57.4223 313.404 57.4243Z" fill="#2D1175"/>
<path d="M303.064 55.4266C303.155 56.1625 303.002 56.9833 302.848 57.8041C314.661 59.4577 316.063 60.259 316.734 61.5608C317.413 56.8847 309.297 56.1674 303.064 55.4266Z" fill="#220D58"/>
<path d="M291.488 59.7469L291.258 60.9781C291.258 60.9781 293.466 60.7867 294.71 61.9995C295.871 63.2132 296.037 63.3749 296.037 63.3749C296.037 63.3749 295.428 60.5165 291.488 59.7469Z" fill="#2D1175"/>
<path d="M292.864 64.8057C291.554 64.8221 291.606 62.4467 292.917 62.5122C293.408 62.506 294.092 64.7904 292.864 64.8057Z" fill="#2D1175"/>
<path d="M291.765 75.3011C292.83 75.2878 294.055 75.0268 294.616 74.1189C294.858 73.7884 294.931 73.0505 294.932 73.1323C295.007 72.6401 295.745 72.7127 295.67 73.205C295.441 74.6 293.981 75.6828 291.765 75.3011Z" fill="#2D1175"/>
<path d="M305.418 80.1257C304.61 80.9547 301.765 82.71 300.059 83.7959C299.778 80.9333 299.504 78.6439 299.504 78.6439C299.504 78.6439 300.912 79.9365 304.67 66.1321C304.67 66.1321 304.67 66.1321 304.671 66.2139C304.85 67.44 306.633 79.0459 305.418 80.1257Z" fill="#FD5E5A"/>
<path d="M290.486 77.6915C290.486 77.6915 290.021 79.7446 290.035 80.8908C290.05 82.0371 292.932 83.3931 295.626 82.7043C298.32 82.0154 301.984 80.3318 302.873 79.4198C303.763 78.5079 304.675 66.377 304.675 66.377L302.295 65.9154C302.295 65.9154 301.002 73.8749 299.949 74.7888C298.978 75.7018 290.486 77.6915 290.486 77.6915Z" fill="#2D1175"/>
<path d="M304.293 61.9624C304.293 61.9624 304.113 67.2055 305.342 67.1901C306.57 67.1748 309.399 64.2732 308.951 61.1671C308.584 57.978 304.902 58.2698 304.293 61.9624Z" fill="#FC7575"/>
<path d="M305.181 61.3784C305.181 61.3784 304.552 63.4335 305.464 64.4047C306.377 65.3759 308.233 63.1417 307.311 61.4336C306.389 59.7255 305.411 60.1471 305.181 61.3784Z" fill="#FD5E5A"/>
<path d="M318.714 56.376C315.789 51.6631 303.426 51.8179 297.612 51.8088C294.418 51.7669 284.826 50.9044 284.859 53.5244C284.871 54.5069 287.178 55.6245 289.23 56.0082C289.388 55.5968 289.461 54.8589 290.362 54.8476C297.322 54.8423 309.117 55.1041 315.379 58.1374C316.286 58.6174 317.042 60.1638 316.893 61.3121C319.506 60.7062 319.799 58.0002 318.714 56.376Z" fill="#B96E16"/>
<path d="M318.958 56.21C314.941 49.2997 287.422 48.9892 284.183 51.8959C282.806 53.1415 284.548 54.9212 287.752 55.7C286.271 55.1453 285.609 54.5804 285.358 54.1741C282.686 50.0312 308.339 51.7572 314.672 53.9708C316.152 54.4436 317.554 55.2449 318.469 56.3799C318.553 56.5426 319.134 57.1904 319.149 58.4186C319.159 59.1555 319.004 59.8944 318.52 60.4737C320.55 59.138 318.958 56.21 318.958 56.21Z" fill="#F8E000"/>
<path d="M302.377 157.466C303.142 159.75 308.06 160.098 313.277 158.231C318.496 156.446 322.139 153.124 321.374 150.841C320.608 148.558 315.69 148.21 310.473 150.077C305.174 151.945 301.612 155.265 302.377 157.466Z" fill="#B96E16"/>
<path d="M312.694 157.255C312.693 157.173 312.692 157.091 312.774 157.09C313.1 157.004 313.508 156.835 313.833 156.668C313.915 156.667 313.997 156.666 313.998 156.747C313.999 156.829 314 156.911 313.918 156.912C313.593 157.08 313.266 157.166 312.859 157.335C312.86 157.417 312.777 157.336 312.694 157.255ZM311.799 157.758C311.473 157.844 311.065 157.931 310.738 158.017C310.656 158.018 310.574 158.019 310.573 157.937C310.572 157.855 310.571 157.773 310.653 157.772C310.98 157.686 311.388 157.599 311.714 157.513C311.796 157.512 311.878 157.511 311.879 157.593C311.961 157.592 311.88 157.675 311.799 157.758C311.88 157.675 311.88 157.675 311.799 157.758ZM314.813 156.492C314.812 156.41 314.811 156.328 314.893 156.327C315.219 156.159 315.544 155.991 315.87 155.823C315.951 155.822 316.033 155.821 316.034 155.903C316.035 155.985 316.037 156.067 315.955 156.068C315.629 156.236 315.304 156.404 314.978 156.571C314.896 156.572 314.813 156.492 314.813 156.492ZM309.676 158.194C309.267 158.281 308.94 158.285 308.532 158.372C308.45 158.373 308.367 158.292 308.366 158.21C308.365 158.128 308.446 158.045 308.527 158.044C308.855 158.04 309.263 157.953 309.59 157.867C309.672 157.866 309.754 157.865 309.755 157.947C309.757 158.111 309.758 158.193 309.676 158.194ZM316.765 155.403C316.764 155.321 316.763 155.239 316.845 155.238C317.17 155.07 317.495 154.82 317.738 154.653C317.819 154.57 317.902 154.651 317.902 154.651C317.985 154.732 317.904 154.815 317.904 154.815C317.58 155.065 317.336 155.232 317.011 155.399C316.848 155.483 316.848 155.483 316.765 155.403ZM307.468 158.467C307.059 158.472 306.731 158.476 306.322 158.481C306.24 158.482 306.157 158.401 306.156 158.32C306.155 158.238 306.236 158.155 306.318 158.154C306.645 158.15 307.055 158.145 307.382 158.14C307.464 158.139 307.547 158.22 307.548 158.302C307.549 158.384 307.55 158.466 307.468 158.467ZM318.551 154.152C318.468 154.071 318.467 153.989 318.549 153.988C318.873 153.738 319.116 153.49 319.359 153.241C319.439 153.158 319.521 153.157 319.522 153.239C319.523 153.321 319.606 153.402 319.524 153.403C319.282 153.651 319.039 153.9 318.716 154.232C318.716 154.232 318.716 154.232 318.634 154.233C318.716 154.232 318.633 154.151 318.551 154.152ZM305.174 158.332C304.763 158.255 304.352 158.097 304.105 158.018C304.023 158.019 304.022 157.937 304.021 157.855C304.02 157.773 304.102 157.772 304.184 157.771C304.432 157.932 304.842 158.009 305.17 158.086C305.252 158.085 305.253 158.167 305.254 158.249C305.336 158.248 305.337 158.33 305.174 158.332C305.255 158.331 305.255 158.331 305.174 158.332ZM320.004 152.496C319.922 152.497 319.921 152.415 319.92 152.333C320.079 151.922 320.157 151.593 320.072 151.349C320.071 151.267 320.07 151.185 320.152 151.184C320.234 151.183 320.315 151.182 320.316 151.264C320.402 151.59 320.326 152.001 320.167 152.412L320.086 152.495C320.086 152.495 320.086 152.495 320.004 152.496ZM303.44 157.207C303.358 157.208 303.276 157.209 303.275 157.127C303.189 156.801 303.266 156.39 303.506 155.978C303.505 155.896 303.587 155.895 303.669 155.894C303.751 155.893 303.752 155.975 303.753 156.057C303.594 156.468 303.517 156.797 303.602 157.041C303.521 157.124 303.522 157.206 303.44 157.207ZM319.409 150.702C319.161 150.541 318.75 150.464 318.422 150.387C318.34 150.388 318.257 150.307 318.338 150.224C318.337 150.142 318.418 150.059 318.501 150.14C318.911 150.217 319.322 150.293 319.569 150.454C319.651 150.453 319.652 150.535 319.653 150.617L319.572 150.7C319.491 150.701 319.49 150.701 319.409 150.702ZM304.152 155.233C304.069 155.152 304.068 155.07 304.15 155.069C304.393 154.82 304.635 154.572 304.959 154.24C305.039 154.157 305.121 154.156 305.122 154.238C305.205 154.319 305.206 154.401 305.124 154.402C304.8 154.652 304.557 154.9 304.315 155.149C304.315 155.149 304.315 155.149 304.233 155.15C304.235 155.314 304.153 155.315 304.152 155.233ZM317.355 150.236C317.028 150.24 316.619 150.245 316.291 150.249C316.209 150.251 316.126 150.17 316.125 150.088C316.124 150.006 316.205 149.923 316.287 149.922C316.697 149.917 317.024 149.913 317.433 149.908C317.515 149.907 317.598 149.987 317.599 150.069C317.436 150.153 317.437 150.235 317.355 150.236ZM305.771 153.739C305.688 153.658 305.769 153.575 305.769 153.575C306.094 153.325 306.337 153.158 306.663 152.99C306.745 152.989 306.826 152.988 306.827 153.07C306.828 153.152 306.829 153.234 306.747 153.235C306.422 153.403 306.098 153.653 305.854 153.82C305.854 153.82 305.772 153.821 305.771 153.739ZM315.146 150.346C314.818 150.35 314.41 150.437 314.083 150.523C314.002 150.524 313.92 150.525 313.919 150.443C313.918 150.361 313.917 150.279 313.999 150.278C314.407 150.191 314.734 150.187 315.143 150.1C315.225 150.099 315.308 150.18 315.309 150.262C315.227 150.263 315.227 150.263 315.146 150.346ZM307.64 152.569C307.639 152.487 307.638 152.405 307.72 152.404C308.045 152.236 308.371 152.068 308.696 151.9C308.778 151.899 308.86 151.898 308.861 151.98C308.862 152.062 308.863 152.144 308.781 152.145C308.456 152.313 308.13 152.481 307.805 152.649C307.723 152.65 307.641 152.651 307.64 152.569ZM312.939 150.701C312.613 150.787 312.204 150.874 311.878 150.96C311.796 150.961 311.714 150.962 311.713 150.88C311.712 150.798 311.711 150.716 311.793 150.715C312.12 150.629 312.528 150.542 312.854 150.456C312.936 150.455 313.018 150.454 313.019 150.536C313.102 150.617 313.021 150.7 312.939 150.701ZM309.676 151.643C309.675 151.561 309.674 151.479 309.756 151.478C310.081 151.31 310.407 151.224 310.734 151.138L310.818 151.301L310.734 151.138C310.816 151.137 310.898 151.136 310.899 151.218C310.9 151.3 310.901 151.382 310.819 151.383C310.492 151.469 310.167 151.636 309.84 151.722C309.758 151.723 309.677 151.724 309.676 151.643Z" fill="#FABE78"/>
<path d="M292.587 140.884L316.04 104.232L313.434 98.8596L318.76 99.1205L325.904 87.6485L315.116 82.7884L292.587 140.884Z" fill="#979FC5"/>
<path d="M230.311 137.57C230.311 137.57 226.561 138.927 225.354 140.662C223.825 142.81 217.488 146.82 215.69 147.088C213.892 147.356 208.751 148.813 208.751 148.813L208.613 157.413C208.613 157.413 233.572 149.485 237.532 145.341C238.907 143.931 230.924 147.307 230.834 146.653C230.744 145.999 240.382 143.995 239.625 142.448C238.869 140.902 230.906 145.833 230.078 145.106C229.25 144.38 240.024 141.624 239.757 139.908C239.49 138.192 229.162 143.89 229.162 143.89C229.162 143.89 228.824 143.075 231.585 141.239C234.347 139.484 237.113 137.976 236.286 137.331C235.541 136.685 228.567 142.177 227.408 141.209C227.655 141.288 231.059 138.461 230.311 137.57Z" fill="#FC7575"/>
<path d="M204.485 148.374L213.313 147.117L215.305 155.773L205.915 157.937L204.485 148.374Z" fill="#D24307"/>
<path d="M158.557 90.2361C154.887 91.4285 148.532 107.067 150.362 115.888C152.274 124.708 165.778 156.803 169.757 160.684C173.737 164.565 210.334 157.474 210.334 157.474L208.803 146.356C208.803 146.356 184.977 146.654 184.386 145.269C181.77 139.079 162.228 89.1256 158.557 90.2361Z" fill="#75260B"/>
<path d="M208.8 146.357C202.989 146.594 190.139 147.082 184.31 145.927C183.9 145.85 182.967 143.323 183.05 143.404C171.567 115.788 161.416 89.874 158.555 90.2374C163.211 89.3602 186.309 148.604 184.535 144.286L184.789 144.938C185.294 145.996 202.165 146.195 208.8 146.357Z" fill="#DA8466"/>
<path d="M123.915 96.8109L104.204 111.798L104.747 155.192L124.603 151.75L123.915 96.8109Z" fill="#E3E3FE"/>
</svg>
